<svg xmlns="http://www.w3.org/2000/svg" width="731.5" height="83"><path d="M63.5 64.1H39.4l-8.7 11H8.2L61.8 12h21l1.7 63.3H63.3l.2-11zm.3-15.3l.3-16.2-12.7 16.2h12.4zM114 11.9h21.2l-19 46.7h28.5l-6.8 16.6h-50l26-63.3zM184 28l-3 7.4h26.8l-6.3 15.4h-26.8l-3.4 8.3H203l-6.6 16h-52.6L169.7 12h51.4l-6.6 16H184zm74 15.7l10.4 31.5h-23.1l-4.5-16.3-17.1 16.3h-25.5l36.7-32.8-9.6-30.5h22.8l4.4 15.8 17-15.8h24L258 43.7zm68 20.4H302l-8.6 11h-22.5L324.4 12h21l1.7 63.3h-21.3l.3-11zm.3-15.3l.3-16.2-12.7 16.2h12.4zm112.5-36.9l-26 63.3h-17.4l-12-29.5-12 29.5h-21l26-63.3H394l12 29.5 12-29.5h20.8zm10.4 0h28.5c20 0 30 10.2 26.6 26.8a46.5 46.5 0 0 1-47.1 36.5h-34l26-63.3zm12 46.6c11.3 0 19-8.1 21.3-18.5 1.5-7.3-2.2-11.5-10.8-11.5h-8.2l-12.2 30h10zm90.8-1.8l6.7 18.5h-22.1l-5.6-16h-5.3l-6.5 16h-21.3l26-63.3h28.3c16.7 0 24.7 7.7 22 20.8a32.6 32.6 0 0 1-22.2 24zm-6.5-28.4h-7.1l-6.2 14.9h8.7c6 0 10-3.1 11-8.4 1-4.6-1.6-6.5-6.5-6.5zm28.9 20a48.2 48.2 0 0 1 47.8-37.9c19.7 0 29.7 11.7 26.2 28.3a48.2 48.2 0 0 1-47.8 38c-19.8 0-29.7-11.8-26.2-28.4zm52.2-8.3c1.5-7.3-2-12.3-9.8-12.3-10.5 0-18.4 9-20.6 19.3-1.6 7.4 2 12.3 9.8 12.3 10.5 0 18.4-9 20.6-19.3zm106.6-28.1l-52.7 63.3h-21l-.8-63.3h21.9v36.9l30.7-37h22z" opacity=".75" /><filter id="a" width="300%" height="300%" x="-100%" y="-100%"><feGaussianBlur in="SourceAlpha" stdDeviation="2" /><feOffset dx="-7" dy="2" result="offsetblur" /><feFlood flood-color="#222" flood-opacity=".4" /><feComposite in2="offsetblur" operator="in" /></filter><path fill="#C6D1E3" d="M86.3 11.6l-19.7-.7-1.3 64.3 19.7.7z" filter="url(#a)" /><path fill="#C6D1E3" d="M86.3 11.6l-19.7-.7-1.3 64.3 19.7.7z" /></svg>