<svg width="0" height="0" class="hidden"><symbol xmlns="http://www.w3.org/2000/svg" id="html5-original" viewBox="0 0 128 128"><path fill="#E44D26" d="M19 113.9L9 1.7h110l-10 112.2-45 12.4z"/><path fill="#F16529" d="M64 116.8l36.4-10 8.5-96H64z"/><path fill="#EBEBEB" d="M64 52.5H45.8l-1.3-14.1H64V24.6H29.5l.3 3.7 3.4 38H64zm0 35.7l-15.4-4.1-1-11H33.8l2 21.6 28.1 7.8h.1z"/><path fill="#fff" d="M64 52.5v13.7h16.9l-1.6 17.9L64 88.2v14.3l28.2-7.8.2-2.3 3.2-36.2.3-3.7h-3.7zm0-27.9v13.8h33.2l.3-3.1.6-7 .3-3.7z"/></symbol><symbol xmlns="http://www.w3.org/2000/svg" id="javascript-original" viewBox="0 0 128 128"><path fill="#F0DB4F" d="M1.4 1.4h125.2v125.2H1.4z"/><path fill="#323330" d="M116.3 96.7c-.9-5.7-4.6-10.5-15.6-15-3.9-1.7-8.1-3-9.4-5.9-.5-1.7-.5-2.6-.2-3.6.8-3.4 4.8-4.4 7.9-3.4 2 .6 4 2.2 5 4.7l9.3-5.9a23.4 23.4 0 0 0-3-4c-3.3-3.7-7.7-5.5-14.8-5.4l-3.7.5c-3.5.9-7 2.7-8.9 5.2-6 6.7-4.2 18.5 3 23.4 7 5.3 17.5 6.5 18.9 11.5 1.3 6-4.5 8-10.3 7.4-4.2-1-6.6-3-9.1-7l-9.5 5.5c1.1 2.5 2.3 3.6 4.2 5.8 9.1 9.2 31.8 8.7 35.9-5.2.1-.5 1.2-3.6.3-8.6zM69.5 59H57.8v30.3c0 6.5.2 12.4-.8 14.2-1.7 3.5-6.2 3-8.2 2.4a10 10 0 0 1-4.3-4.5l-.7-1-9.5 5.8c1.6 3.2 4 6 7 7.9a22.7 22.7 0 0 0 16.6 2c4.1-1.2 7.6-3.6 9.5-7.4 2.7-4.9 2-10.8 2-17.4V58.9z"/></symbol><symbol xmlns="http://www.w3.org/2000/svg" id="linux-original" viewBox="0 0 128 128"><path fill="#333" d="M75.9 111.4c-5.3-3.3-18-2.4-21-1.9-3.2 7.1-9.4 7.6-14.1 5.7-7.1-2.8-12.8-2.8-20-6.2-2.3-1-2.8-2.3-2.3-4.2 1-3.3 2.4-5.7 1.4-8.6-1-3.3-.5-7 4.3-8.5 5.7-1 5.7-4.7 8.5-5.7 3.8-22.7 11.9-29.4 17-36.5 0-7.6-1.3-13.7-.9-20.8 3.3-20.4 29-15.2 31.8.9 1 5.2 0 9.5 1 14.7 1.8 8 9.9 12.8 12.7 19 3.4 7 8.1 18 4.3 24.6 2.9 1 3.3 3.8 3.8 6.6.5 3.8 5.7 4.8 7.1 7.6 1 2 0 3.8-1.4 5.2-4.3 3.4-9.5 4.8-13.8 8.6-5.2 5.2-16.5 7-18.4-.5zM47.4 99.6c-3.8-3.8-7.1-15.2-12.3-15.7-2.9 0-5.2 5.7-7.1 5.7-6.2 1-6.7 3.3-5.2 6.2 1.9 4.7-1 6.1-1.5 9 0 3.8 15.7 5.7 19.5 7 11.8 4.8 11.8-6 6.6-12.2zm44.6 10c4.2-3.9 13.2-6.3 13.2-10 0-3.8-4.2-3.8-5.6-5.7-1.5-2.4-1.5-6.7-3.8-7.1-4.3 3.7-11.9 6.6-11.9-1-3.3-1-4.3 1-3.8 5.2 1.4 7.1-3.3 16.6 0 19.5 4.3 3.8 8 2.3 11.9-1zM76.8 96.6c1.4-1.4-.5-6.2 0-10 .5-3.3 4.7-4.2 6.6-4.2C89.1 66.8 72.5 55 72.1 43.6c-7.6 8.5-15.7 11.9-20 1-2.8 13.2-12.3 21.8-12.8 36 .5 5.7 19.5 8.5 10.5 18 1.9 1.9 2.3 3.8 3.8 5.7 8 2.8 20.4 0 23.2-7.6zm-6.6-53.6c1.4-.4 1.9-1 1.9-1.9 0-3.3 0-3.7-2.4-4.2-4.8-1-9-4.8-13.3-2.4-2.4 1-8.5 6.2-5.2 7.1 2.4 1.4 5.2 2 8 2 4.3.4 7.6-4.4 10.5-4.8 3.3 0-1 1.9-2 2.3-3.7 2.9-9.9 5.3-14.6 2.9 4.3 7.6 12.8 1.4 17-1zm-16.6-8c-3.4-5.7 2.8-8.6 3.3-2l1.4-.9c-.5-12.3-10.9-6.6-6.2 4.3zM71 36c3.3-14.8-8-14.3-8.5-3.4l2.3 1c1-10 6.7-3.8 4.3 1.9zm-15.6-3.9c.4-1.9-2.4-1.9-1.5-1.4zm13.2-.4c1-1-1.9-3.4-1-1zm0 0"/></symbol><symbol xmlns="http://www.w3.org/2000/svg" id="mysql-plain" viewBox="0 0 128 128"><path fill="#00618A" d="M125.5 122.8l-2.6-2.6a41.8 41.8 0 0 0-9-8.5c-2.7-2-8.7-4.5-9.8-7.6l-.2-.2c1.9-.3 4-1 5.8-1.4 3-.8 5.4-.6 8.4-1.4l3.9-1.1v-.8c-1-1.6-2.4-3.7-4.1-5.1-4.4-3.7-9-7.4-14-10.5-2.7-1.8-6-2.9-8.9-4.3-1-.5-2.6-.8-3.3-1.6-1.5-2-2.3-4.4-3.5-6.6-2.4-4.7-4.8-9.9-7-14.9-1.5-3.3-2.4-6.7-4.3-9.7a86.2 86.2 0 0 0-33.1-32c-3.2-1.8-7-2.6-11-3.5l-6.4-.4c-1.3-.6-2.7-2.2-4-3-4.8-3-17.4-9.8-21-1-2.3 5.7 3.4 11.1 5.5 14 1.4 2 3.2 4.1 4.3 6.4.6 1.4.8 3 1.3 4.5 1.5 3.8 2.7 8 4.5 11.5 1 1.8 2 3.6 3.1 5.2.8 1 2 1.5 2.2 3-1.2 1.7-1.3 4.3-2 6.4-3 9.6-1.9 21.6 2.6 28.7 1.3 2.2 4.5 6.9 9 5 3.8-1.5 3.2-6.4 4.3-10.7.2-1-.2-1.7.8-2.3v.2a128.6 128.6 0 0 0 3.3 7c2.6 4.2 6.9 8.6 10.8 11.5 2 1.6 3.9 4.2 5.9 5.1v-.1h.2c-.5-1-1.3-1.2-2-1.8a44.7 44.7 0 0 1-4.4-5.1C47.2 90.3 44 85 41.2 79.5l-3.7-8.2c-.4-1-.4-2.6-1.4-3.1-1.2 2-3 3.5-4 5.8-1.6 3.7-1.8 8.2-2.4 12.9l-.4.2c-2.7-.7-3.7-3.5-4.7-5.9-2.5-6-3-15.8-.7-22.8.5-1.8 3.2-7.5 2.1-9.2-.5-1.6-2.2-2.6-3.1-3.9a30.7 30.7 0 0 1-3.1-5.4c-2.1-4.8-3.1-10-5.3-14.9-1-2.3-2.8-4.6-4.3-6.6-1.6-2.3-3.4-4-4.7-6.6-.4-1-1-2.6-.4-3.6.2-.6.5-1 1.2-1.1 1.1-.9 4.3.3 5.5.8 3 1.3 5.7 2.5 8.3 4.2l4.1 2.9H26c2.7 0 5.8.2 8.4 1 4.5 1.4 8.6 3.6 12.3 5.9a76.1 76.1 0 0 1 26.7 29.3c1 1.9 1.5 3.8 2.4 5.8 1.8 4.2 4 8.4 5.8 12.5 1.8 4 3.5 8.1 6 11.5 1.4 1.8 6.5 2.7 8.8 3.7 1.7.7 4.3 1.4 5.9 2.4 3 1.8 5.8 3.9 8.6 5.8 1.4 1 5.6 3.1 5.8 4.9-6.8-.2-12 .5-16.6 2.3-1.2.6-3.3.6-3.5 2.2.7.7.8 1.8 1.4 2.7 1 1.8 2.9 4 4.5 5.3 1.7 1.3 3.6 2.7 5.5 3.9 3.3 2 7 3.2 10.3 5.3l5.8 4c1 .7.9 1.8 2.9 2.2v-.2c-1-.8-1-1.9-1.5-2.7zm-96-99.3c-1.4 0-2.5.1-3.5.4v.1h.2l2.7 3.5 2 4.1.2-.1c1.2-.9 1.7-2.3 1.7-4.3-.5-.5-.5-1.2-1-1.8-.5-.8-1.6-1.3-2.3-2z"/></symbol><symbol xmlns="http://www.w3.org/2000/svg" id="nodejs-plain" viewBox="0 0 128 128"><path fill="#83CD29" d="M112.7 30.3L68.5 4.7a9.6 9.6 0 0 0-9.2 0L14.8 30.3a9.5 9.5 0 0 0-4.8 8.1v51.1c0 3.4 2 6.5 4.9 8.1l11.7 6.7c5.6 2.8 7.2 2.8 9.7 2.8 8.4 0 12.7-5 12.7-13.8V42.8c0-.7.4-1.8-.3-1.8h-5.6c-.7 0-2.1 1-2.1 1.8v50.5c0 3.9-3.6 7.7-10.2 4.4l-12.1-7c-.4-.2-.7-.7-.7-1.2v-51c0-.6.5-1 .9-1.3l44.4-25.6a1.5 1.5 0 0 1 1.4 0l44 25.6c.4.2.3.7.3 1.2v51.1c0 .5 0 1-.3 1.2l-44.2 25.6c-.3.3-.8.3-1.2 0l-11.4-6.7c-.3-.2-.7-.3-1-.1-3.2 1.8-3.8 2-6.7 3-.7.3-1.8.7.4 2l14.8 8.7a9.3 9.3 0 0 0 4.6 1.3 9.3 9.3 0 0 0 4.7-1.3l44-25.6a9 9 0 0 0 4.3-8V38.3a9 9 0 0 0-4.3-8zm-35 51.1c-11.7 0-14.3-3.2-15.1-9-.1-.6-.7-1.4-1.3-1.4h-5.7c-.8 0-1.3.9-1.3 1.6 0 7.4 4 16.5 23.4 16.5 14 0 22.1-5.5 22.1-15.1s-6.5-12.1-20-14c-13.8-1.7-15.2-2.7-15.2-5.9 0-2.6 1.2-6.2 11.3-6.2 9.2 0 12.5 2 13.9 8.1.1.6.6 1 1.2 1h5.8c.3 0 .7-.1 1-.4.2-.3.3-.6.3-1-1-10.5-8-15.5-22.2-15.5-12.6 0-20.1 5.4-20.1 14.3 0 9.7 7.5 12.4 19.6 13.6C89.9 69.4 91 71.5 91 74.4c0 5-4 7-13.3 7z"/></symbol><symbol xmlns="http://www.w3.org/2000/svg" id="photoshop-plain" viewBox="0 0 128 128"><path fill="#80B5E2" fill-rule="evenodd" d="M50.2 41.6c-3.6-1-7.3-.6-11.2 0v20c0 .4.5 1 .9 1 4.2.6 8.4.6 12.4-1.3 4.1-2 6.2-6.2 5.6-11-.4-4.6-3-7.5-7.7-8.7zM127 64V3.3c0-2.1 0-2.3-2-2.3H3.5C1.5 1 1 1.2 1 3.2v121.5c0 2 .3 2 2.2 2H125c1.6 0 2-.4 2-2V64zm-70.6 5.8c-5.6 2-11.4 2.1-17.4 1.6V94H28v-1.4l-.1-56.7c0-1.6.2-2.3 2-2.5 8.3-.8 16.6-1.8 24.9.1 8.9 2.1 14 8 14.4 16.2.5 10-4 17-12.8 20.1zm44.3 12.8c-.5 5.7-3.7 9.5-9 11.3a29.8 29.8 0 0 1-21.3-.8c-1.1-.5-1.3-1-1-2.2l1.8-6.3c3 .8 5.7 2 8.6 2.4 2 .4 4.3.2 6.4-.1a4 4 0 0 0 3.5-3.6c.3-2-.3-3.8-2.1-5-1.4-.8-3-1.4-4.5-2.1-2.5-1.2-5-2-7.3-3.5-8.8-5.8-6-16.4 0-20.4 3-2.2 6.6-3.1 10.3-3.3 4.4-.1 8.6.6 12.8 2.7l-2.2 7.7c-1.7-.6-3.4-1.4-5-1.7-2.1-.4-4.2-.6-6.3-.4-2.7.2-4.3 2.1-4.3 4.5 0 1.3.5 2.5 1.7 3.2 1.6 1 3.4 1.8 5.1 2.6 2 .9 4 1.5 5.8 2.5 4.8 2.7 7.4 6.8 7 12.5z" clip-rule="evenodd"/></symbol><symbol xmlns="http://www.w3.org/2000/svg" id="php-plain" viewBox="0 0 128 128"><path fill="#6181B6" d="M64 33C30.3 33 3 47 3 64s27.3 31 61 31 61-13.9 61-31-27.3-31-61-31zM48.1 70a12 12 0 0 1-4.9 2.5c-1.7.6-4 .5-6.8.5h-6.2l-1.8 10h-7.3l6.6-34h14c4.2 0 7.3 1.2 9.2 3.4 2 2.2 2.6 5.4 1.8 9.4-.3 1.6-.9 3.1-1.6 4.5a15.1 15.1 0 0 1-3 3.7zm21.3 3l2.9-14.4c.3-1.7.2-3-.4-3.6-.5-.6-1.7-1-3.6-1h-5.8l-3.7 19h-7.3L58 40h7.3l-1.7 9H70c4 0 6.9.8 8.4 2.2s2 3.4 1.4 6.6l-3 15.2h-7.4zm40.3-11.2A15 15 0 0 1 105 70a12 12 0 0 1-4.9 2.5c-1.8.6-4 .5-6.8.5h-6.2l-1.8 10h-7.3l6.5-34h14c4.3 0 7.4 1.2 9.3 3.4 2 2.2 2.5 5.5 1.8 9.4zM95.9 54h-5l-2.7 14h4.4c3 0 5.2-.3 6.6-1.4 1.5-1.1 2.4-2.8 3-5.4.4-2.5.2-4.5-.7-5.5-1-1-2.8-1.7-5.6-1.7zm-57 0h-5l-2.7 14h4.4c3 0 5.2-.3 6.6-1.4 1.5-1.1 2.4-2.8 3-5.4.4-2.5.2-4.5-.7-5.5S41.7 54 38.9 54z"/></symbol><symbol xmlns="http://www.w3.org/2000/svg" id="sass-original" viewBox="0 0 128 128"><path fill="#CB6699" d="M1.2 56.2c0 .7.2 1.1.3 1.6.8 3 2.4 5.4 4.4 7.7a51 51 0 0 0 9.5 8.4l9 6.4c.6.3 1 .8 1.6 1.2l-1.3.7c-4 2-7.8 4.3-11.3 7A23 23 0 0 0 7.8 95c-2.3 3.7-3.1 7.6-1.4 11.7a7 7 0 0 0 2.4 3c.3.3.7.6 1.1.7l3.2.6h3c3.4-.3 6.5-1.4 9.2-3.4 4.4-3 7.3-7 8.5-12 1-3.8 1-7.5-.1-11.2a11.7 11.7 0 0 0-.4-1l-.4-1 6.8-4h.1c0 .5-.2.9-.3 1.3-.8 3-1.4 6-1.2 9.1.2 3.3 1.1 6.4 3 9.1 1.6 2.3 5.4 2.4 7 .1a16 16 0 0 0 1.6-2.5l3.2-7 .2-.4-.2 3c0 1.5 0 3 .6 4.5.4 1.2 1.2 2.2 2.6 2.3 1 .1 1.7-.3 2.4-.9a10.4 10.4 0 0 0 2.7-3.2c2-3.5 3.9-7 5.6-10.5 1.9-3.9 3.5-7.9 5.2-11.8l.3-.7c.4 1.6.7 3.2 1.2 4.7.6 1.7 1.4 3.4 2.2 5 .4.8.4 1.3-.2 2L69 90.6l-1.4 1.9a3.7 3.7 0 0 0-.4 1.3 1.7 1.7 0 0 0 1.3 2 9.7 9.7 0 0 0 2.7.2 15 15 0 0 0 8.4-3.2c3.3-2.3 4.3-5.6 3.5-9.5-.2-1-.6-2-1-3 0-.5-.1-.8.2-1.2a97.8 97.8 0 0 0 7.1-12 30 30 0 0 0 3.5 9.7l-2.7 2.6c-1.8 1.9-3.3 4-4.1 6.6a7.8 7.8 0 0 0-.5 3.4c.2 1.8 1.7 3 3.5 2.6 3.9-1 7.2-2.7 9.7-6 1.6-2.1 1.7-4.5 1-7-.1-.8-.4-1.4-.6-2.2l2.8-.9c5-1.1 10-1 14.7.9 2.8 1 5.1 2.8 6.5 5.5 1.6 3.4.7 6.6-2.5 8.8l-.9.6a.9.9 0 0 0-.2.6c0 .2.4.3.5.3 1 0 2-.5 2.8-1.1 2-1.4 3.5-3.3 3.8-5.8v-2.1c-.4-3.6-2.4-6.5-5.2-8.7a19 19 0 0 0-11.3-3.8 25.4 25.4 0 0 0-9.7 1.5l-2.7 1.1-.4-.6c-.9-2-2-3.8-2.3-6-.1-1.5-.3-3 0-4.5l1.3-4.4c.2-.7 0-1.2-.7-1.5a2.9 2.9 0 0 0-.8-.3c-1.7-.2-3.4 0-5.1.4-.6.2-1 .5-1.2 1.2 0 .4-.2.7-.3 1.1-.5 1.6-.8 3.2-1.5 4.7-1.8 3.7-3.9 7.3-6 10.9l-.7 1.2c-.7-1.5-1.5-3-1.8-4.5a14 14 0 0 1 0-5.5c.3-1.4.8-2.7 1.2-4 .2-.7.1-1-.5-1.4-.3-.1-.6-.3-1-.3a11.6 11.6 0 0 0-5.3.4c-.5.2-.8.5-1 1.1-.5 1.7-.9 3.3-1.6 5l-8.4 19-2 3.8-.6 1-.3-.5v-2.5a172.2 172.2 0 0 1 1.7-7c.4-2 1-4 1.5-5.9.2-.6.2-1.2-.3-1.8a2.7 2.7 0 0 0-3.4-.4l-.4.2.1-.6c.2-1.5.2-3-.2-4.5-.5-1.8-1.8-2.8-3.6-2.8a8 8 0 0 0-2.7.5c-3.4 1.4-6 3.8-8.2 6.6a2.6 2.6 0 0 1-.8.7l-8.7 4.7-3.2 1.8-2.6-2.4-8.2-6.6c-2.5-2-4.8-4-6.6-6.6-1.4-1.9-2.2-4-2.3-6.3a15 15 0 0 1 2.3-8.4c2-3.3 4.6-6 7.6-8.3A75.5 75.5 0 0 1 46.2 27a42.4 42.4 0 0 1 17-2c2.2.3 4.4.8 6.4 2 1.6.8 2.9 1.9 3.5 3.6.6 1.8.5 3.5.1 5.2-.8 3.6-2.7 6.5-5.2 9-4 4.4-8.8 7.3-14.3 9.2a39.5 39.5 0 0 1-9.8 2c-2.7.3-5.4 0-8-.9-1.7-.6-3.2-1.6-4.4-3-.2-.2-.4-.5-.8-.3-.4.3-.5.6-.4 1 .2.6.4 1.3.8 1.8.8 1.4 2 2.5 3.5 3.3a17 17 0 0 0 8.6 2.4c4.7.2 9.2-.5 13.7-1.7 6.4-1.8 12-5 16.4-10 3.7-4 6.3-8.7 6.9-14.3a14 14 0 0 0-1.3-8 14.4 14.4 0 0 0-6.3-6.1c-3.8-2-8-3.2-12.3-3.2H56c-5.2 0-10.3 1.5-15.2 3.3A104 104 0 0 0 30 25 70.3 70.3 0 0 0 9.2 39.8a31 31 0 0 0-6.8 10.8 40.5 40.5 0 0 0-1 3.7m27.7 36c-.3 4.5-2.3 8.1-5.6 11-1.9 1.7-4 2.9-6.5 3.3-.9.1-1.8.2-2.7-.2-1.2-.5-1.5-1.6-1.5-2.8 0-1.9.6-3.6 1.5-5.2 1.2-2.1 2.9-3.7 4.7-5.2 3-2.4 6-4.4 9.3-6.2l.2-.1c.5 1.8.8 3.6.6 5.5zM54.3 71a124.7 124.7 0 0 1-6.2 18.2l-1.4 2.4a1.7 1.7 0 0 1-.3.3c-.6.6-1.1.6-1.4-.2l-.7-2.7-.2-1.9c0-4.5 1.5-8.6 3.8-12.4 1-1.5 2-3 3.6-4A6.3 6.3 0 0 1 53 70c.8-.3 1.3.1 1.2 1zm17.2 21.8l6.1-7.2c.3 2.7-4.3 8-6.1 7.2zM91.2 88l-1.4.7c-.4.2-.5 0-.5-.4a2.4 2.4 0 0 1 0-.7c.9-3 2.4-5.5 4.7-7.5h.2c1 3-.2 6.3-3 7.9z"/></symbol><symbol xmlns="http://www.w3.org/2000/svg" id="vuejs-original" viewBox="0 0 128 128"><path fill="none" d="M0 9h49.9L64 33.7 78.5 9l49.5-.2-63.8 110.2zm127 .6h-24.4l-38.5 66-38.4-66H.9l63.3 107.9zm-25.2 0l-22.7.1-15 24.7L49.1 9.7l-22.8-.1L64.2 74zM26 9.4h23m-23 0h23"/><path fill="#35495e" d="M26 9.4h23l15 25 15-25h23L64.2 75.1z"/><path fill="#41b883" d="M1 9.6l25-.2L64 75.1 102 9.4h25l-62.9 108z"/></symbol><symbol xmlns="http://www.w3.org/2000/svg" id="bootstrap-plain" viewBox="0 0 128 128"><path fill="#5B4282" d="M75.7 65.6c-2.3-.8-5.7-.6-10-.6H48v23h18.8c3 0 5-.3 6.2-.5 2.1-.4 3.9-1.1 5.3-2 1.4-.9 2.6-2.2 3.5-3.9.9-1.7 1.4-3.6 1.4-5.8 0-2.6-.7-4.6-2-6.5a10 10 0 0 0-5.5-3.7zm-2.4-10.5c2.3-.7 4-1.9 5.2-3.5a10 10 0 0 0 1.8-6c0-2.3-.6-4.4-1.7-6.1s-2.6-2.4-4.7-3c-2-.7-5.5-.5-10.4-.5H48v20h16.6c4 0 7-.4 8.7-1zM126 18.6C126 9.4 118.6 2 109.4 2H17.6C8.4 2 1 9.4 1 18.6v91.8c0 9.2 7.4 16.6 16.6 16.6h91.8c9.2 0 16.6-7.4 16.6-16.6V18.6zM90.6 84.7c-1.4 2.8-3 5-5.1 6.5-2 1.5-4.5 2.7-7.5 3.5-3 .8-6.8 1.3-11.2 1.3H39V27h27.4c5.3 0 9.5.6 12.7 2a16.9 16.9 0 0 1 10.2 15.5c0 3-.8 5.7-2.4 8.3-1.6 2.6-4 4.7-7.3 6.3a18 18 0 0 1 9.6 6.2c2.3 3 3.4 6.4 3.4 10.4 0 3.3-.7 6.3-2 9z"/></symbol><symbol xmlns="http://www.w3.org/2000/svg" id="laravel-plain" viewBox="0 0 128 128"><path fill="#FD4F31" d="M17 1.7c-1.2.1-2.3 0-3.4.4A16 16 0 0 0 1.8 14.7l.6 1 3.6 6 3.2 5.4 3 4.9 4.6 7.7 3.1 5.2 4.6 7.7 5.6 9.3L35 70l.2.3h.6l6.4-1.5 10.4-2.5L58 65l10.5-2.5L79.1 60l5.4-1.3 10.4-2.5 11.3-2.7.6-.2-.2-.3-3-4.4-3.1-4.3-3.3-4.6-3-4.4L91 31l-3.2-4.6-3-4.4-1.7-2.3c-.3-.3-.5-.7-.6-1.1-.3-1 0-1.7.6-2.2.4-.3.8-.6 1.3-.7l2-.5 4.1-.7 4.6-.8 3-.5 4-.7 3.8-.6 4.2-.7 3-.5 3.3-.5 4.1-.7c.9-.1 1.7-.2 2.5 0 .6.2 1.2.5 1.7.9l.7.5c.1-.2 0-.3 0-.4a16.5 16.5 0 0 0-10-8.5c-1.2-.4-2.4-.2-3.7-.3M55.7 127l-.2-.6-4.5-7.8-5.6-9.8-5.8-10.4a5710 5710 0 0 1-5.6-10l-3.3-6-.3-.5-.5.1-3.3.9-4.4 1.2-10 2.6-10.4 2.6-.8.1v21.2c.4.6.4.3.4.5 0 .7.2 1.3.3 2a16.5 16.5 0 0 0 14 13.3l1.3.3"/><path fill="#FD4F31" d="M5 77.7L16.8 75l5.2-1.2 2.6-.6c.7-.2.8-.5.4-1.2l-1.7-3-5-8.7-5.1-8.7-5.2-9L3.6 35l-2-3.2c-.1-.2.4-.5-.6-.6v47.4h.6l3.4-.9zm121.2 34A1965.5 1965.5 0 0 0 111 117l-5.8 2-12 4.3-6.9 2.7c-.6.2-1.2.9-1.9.9H111l.6-.3c.7 0 1.3-.3 2-.4a16.4 16.4 0 0 0 11.4-8.1c1-2 1.7-4 2-6.1v-.6l-.7.1zM124 76l-3.5-4.7-4.8-6.7-2-2.7c-.1-.2-.3-.3-.6-.2h-.2l-8.9 2.2-5.3 1.3-10.4 2.5L78 70.2l-10.7 2.6-10.5 2.5-10.1 2.5-5.4 1.3c-.2 0-.5 0-.8.3l.2.4a6000 6000 0 0 0 9.6 16.6L56 106l3.2 5.5a661.9 661.9 0 0 0 4.9 7.9l1 1c.4.2.9.3 1.4.2l.7-.2 1-.4 9.6-3.3 7.6-2.6 7.5-2.5 7.5-2.5 7.7-2.6 9.3-3.2 9-3c.3-.1.5-.1.6-.3V80.8c0-.4 0-.7-.2-1l-2.9-3.8zm-.5-58.9a2.4 2.4 0 0 0-2.7-.9c-.4.2-1 .2-1.4.3l-4.8.9-7 1.3-5.5 1-7.5 1.2-.9.2c-.4.2-.6.5-.4.9l.6 1c1.6 2 3.1 4.2 4.6 6.3l6.4 8.7 5.4 7.4 4.3 5.8.2.3 12.3-3V22.3c0-.4 0-.7-.3-1l-3-4-.3-.2zm3.3 41.3l-5.6 1.3 5.7 7.8h.2v-9.1h-.3z"/></symbol><symbol xmlns="http://www.w3.org/2000/svg" id="express-original" viewBox="0 0 128 128"><path d="M126.7 98.4c-4.6 1.2-7.4 0-10-3.7-5.6-8.5-11.9-16.6-18-25l-2.5-3.4C89 76 81.8 85.2 75.2 94.8c-2.5 3.4-5 4.9-9.5 3.7l27-36.2-25.1-32.6c4.3-.8 7.3-.4 10 3.5 5.8 8.5 12.2 16.6 18.6 25.2 6.5-8.6 12.8-16.7 18.8-25.1 2.4-3.5 5-4.8 9.3-3.5l-9.7 12.9c-4.3 5.7-8.6 11.5-13.1 17.1-1.7 2-1.4 3.3 0 5.2l25.2 33.4zM1.3 61.7C2 58.1 2.5 54.4 3.5 51c6-21.4 30.6-30.3 47.5-17C61 41.6 63.4 52.6 63 65H7.1c-.8 22.2 15.2 35.6 35.5 28.8 7.2-2.4 11.4-8 13.5-15 1-3.5 2.8-4 6.1-3-1.7 8.7-5.5 16-13.5 20.6a32.7 32.7 0 0 1-38.1-5 34.5 34.5 0 0 1-8.6-20c-.1-1.2-.5-2.4-.7-3.6v-6zm5.9-1.5h50.4c-.3-16-10.3-27.4-24-27.5-15-.1-25.8 11-26.4 27.5z"/></symbol><symbol xmlns="http://www.w3.org/2000/svg" id="firebase" viewBox="0 0 512 512"><path fill="#FFA000" d="M297 205.6l-36.3 33.8-33.7-68 17.4-39.1c4.4-7.9 11.7-7.9 16 0l36.6 73.3z"/><path fill="#F57F17" d="M260.7 239.4L124.9 365.7l102-194.3z"/><path fill="#FFCA28" d="M336.8 153.9c6.5-6.2 13.2-4.1 14.9 4.7L387 364 270 434.2c-4.1 2.3-15 3.3-15 3.3s-9.9-1.2-13.7-3.3L125 365.7l211.9-211.8z"/><path fill="#FFA000" d="M227 171.4L125 365.7l45.4-284c1.7-8.8 6.7-9.7 11.2-1.9l45.4 91.6z"/></symbol><symbol xmlns="http://www.w3.org/2000/svg" id="git-plain" viewBox="0 0 128 128"><path fill="#F34F29" d="M124.7 58.4l-55-55.1a8.1 8.1 0 0 0-11.6 0L46.7 14.7l14.5 14.5a9.7 9.7 0 0 1 10 2.3 9.7 9.7 0 0 1 2.2 10l14 14a9.7 9.7 0 0 1 10 16 9.7 9.7 0 0 1-13.7 0 9.7 9.7 0 0 1-2-10.5L68.5 48v34.3A9.7 9.7 0 0 1 71 84a9.7 9.7 0 0 1-13.6 13.7A9.7 9.7 0 0 1 60 82V47.3a9.6 9.6 0 0 1-4.8-12.7L41 20.3 3.2 58.1a8.1 8.1 0 0 0 0 11.5l55.2 55.1a8.1 8.1 0 0 0 11.5 0L124.7 70a8.1 8.1 0 0 0 0-11.5z"/></symbol></svg>
