<svg width="0" height="0">
  <symbol xmlns="http://www.w3.org/2000/svg" id="azure" viewBox="0 0 128 128">
    <path fill="#114a8b" d="M43 4h37L42 119a6 6 0 0 1-6 5H7l-5-3-1-5L37 9a6 6 0 0 1 6-5"/>
    <path fill="#0078d4" d="M97 82H38a3 3 0 0 0-2 4l38 36 4 2h34z"/>
    <path fill="#3ccbf4" d="M91 9a6 6 0 0 0-6-5H43a6 6 0 0 1 6 5l36 107a6 6 0 0 1-5 8h41a6 6 0 0 0 6-8z"/>
  </symbol>
  <symbol xmlns="http://www.w3.org/2000/svg" id="docker" viewBox="0 0 128 128">
    <path fill="#3a4d54" fill-rule="evenodd" d="M74 51h11v11h6l11-3-2-7q-2-5 3-11l1-1 1 1q7 5 7 11 8-2 13 2h2l-1 2q-6 8-16 8-16 36-57 36-21 0-33-17l-1-3q-3-7-2-16v-2h9V51h12V40h22V28h14z" clip-rule="evenodd"/>
    <path fill="#00aada" d="M110 55q0-9-6-13c-3 4-4 14 1 18q-5 3-14 4H19q-1 10 3 17v2l2 2h8l12-1h1v1l-1 1-9 1h-9q9 11 27 11c25 0 46-11 55-36q11 2 16-7-7-4-14 0"/>
    <path fill="#28b8eb" d="M110 55q0-9-6-13c-3 4-4 14 1 18q-5 3-14 4H23q-1 15 9 21l12-1h1v1l-1 1-9 1q14 6 35-1 25-10 41-31z"/>
    <path fill="#028bb8" d="m19 72 3 9v2l2 2h8l12-1h1v1l-1 1-9 1h-9q9 11 27 11 33 1 51-26z"/>
    <path fill="#019bc6" d="M24 72q2 9 8 13l12-1h1v1l-1 1-9 1q14 6 35-1 13-5 24-14z"/>
    <path fill="#00acd3" fill-rule="evenodd" d="M28 53h10v10H28zm1 1h1v8h-1zm2 0v8zm1 0v8h-1zm2 0v8zm1 0v8h-1zm2 0v8zm3-12h9v9h-9zm0 0h1v8h-1zm2 0v8h-1zm1 0h1v8h-1zm2 0v8h-1zm1 0h1v8h-1zm2 0v8h-1z" clip-rule="evenodd"/>
    <path fill="#23c2ee" fill-rule="evenodd" d="M40 53h9v10h-9zm1 1v8h-1zm1 0v8h-1zm1 0h1v8h-1zm2 0v8h-1zm1 0h1v8h-1zm2 0v8h-1z" clip-rule="evenodd"/>
    <path fill="#00acd3" fill-rule="evenodd" d="M51 53h10v10H51zm1 1v8zm1 0v8h-1zm2 0v8zm1 0v8h-1zm2 0v8zm1 0v8h-1z" clip-rule="evenodd"/>
    <path fill="#23c2ee" fill-rule="evenodd" d="M51 42h10v9H51zm1 0v8zm1 0v8h-1zm2 0v8zm1 0v8h-1zm2 0v8zm1 0v8h-1zm3 11h10v9H62zm1 0v9h-1zm1 0h1v9h-1zm2 0v9h-1zm1 0h1v9h-1zm2 0v9h-1zm1 0h1v9h-1z" clip-rule="evenodd"/>
    <path fill="#00acd3" fill-rule="evenodd" d="M62 42h10v9H62zm1 0v8h-1zm2 0v8h-1zm1 0v8h-1zm1 0h1v8h-1zm2 0v8h-1zm1 0h1v8h-1z" clip-rule="evenodd"/>
    <path fill="#23c2ee" fill-rule="evenodd" d="M62 30h10v10H62zm1 1v8h-1zm2 0v8h-1zm1 0v8h-1zm1 0h1v8h-1zm2 0v8h-1zm1 0h1v8h-1z" clip-rule="evenodd"/>
    <path fill="#00acd3" fill-rule="evenodd" d="M74 53h9v10H73zm0 1h1v8h-1zm2 0v8h-1zm1 0h1v8h-1zm2 0v8h-1zm1 0h1v8h-1zm2 0v8h-1z" clip-rule="evenodd"/>
    <path fill="#d4eef1" fill-rule="evenodd" d="M49 78q2 0 2 3 1 3-2 3t-3-3q0-2 3-3" clip-rule="evenodd"/>
    <path fill="#3a4d54" fill-rule="evenodd" d="m49 79 1 1 1-1v1a2 2 0 1 1-2-2M1 73h126c-3-1-9-2-8-5-5 5-17 4-20 1-4 5-23 3-25-1-4 5-17 5-21 0-1 4-21 6-24 1-3 3-15 4-20-1 1 3-5 4-8 5" clip-rule="evenodd"/>
    <path fill="#bfdbe0" d="M56 98q-10-5-12-12l-9 1H25q8 10 28 11z"/>
    <path fill="#d4eef1" d="m46 90-2-4-9 1z"/>
  </symbol>
  <symbol xmlns="http://www.w3.org/2000/svg" id="dotnetcore" viewBox="0 0 128 128">
    <g fill="#623697">
      <path d="M61 0h5a65 65 0 0 1 62 62v4a64 64 0 0 1-38 57 64 64 0 0 1-25 5h-2A64 64 0 0 1 0 67v-5A64 64 0 0 1 61 0M25 38v36h4V43l2 2 18 29h6V38h-5v30L31 38zm39 0v36h19v-4H68V57h14l-1-4H68V41h14v-3zm23 0v3h10v33h4V41h11v-3zM14 69q-3 3-1 5 4 1 5-2-1-4-4-3m29 15c-4 4-4 12 0 15h9v-2q-4 3-8-1-5-6 1-11h7v-2q-5-2-9 1m17 3q-3 0-5 3-2 5 1 8 4 3 8 0 4-4 1-9zm18 3q-2 5 1 9h8v-2q-3 2-6 1l-2-4h8l-1-5q-5-4-8 1m-9-3v12h2v-6l2-4h3v-2l-5 2v-1zm0 0"/>
      <path d="M59 89q2-1 5 2v6q-4 3-7-1-2-3 2-7m20 3q0-2 3-3l3 1 1 2zm0 0"/>
    </g>
  </symbol>
  <symbol xmlns="http://www.w3.org/2000/svg" id="git" viewBox="0 0 128 128">
    <path fill="#f34f29" d="M125 58 70 3q-7-4-12 0L47 15l14 14a10 10 0 0 1 12 13l14 14a10 10 0 0 1 10 16 10 10 0 0 1-13 0 10 10 0 0 1-2-11L69 48v34l2 2a10 10 0 1 1-14 0l4-2V47l-4-2q-3-5-2-10L41 20 3 58a8 8 0 0 0 0 12l55 55q7 5 12 0l55-55a8 8 0 0 0 0-12"/>
  </symbol>
  <symbol xmlns="http://www.w3.org/2000/svg" id="go" viewBox="0 0 128 128">
    <g fill="#00acd7" fill-rule="evenodd">
      <path d="m11 55 1-2h23l-1 2h-1zm-9 5 1-2h28l1 1-1 1zm15 6 1-2h13v2zm63-12-11 2h-1l-3-3q-6-2-11 1-6 4-6 12t8 9q6 2 10-4l2-2H56q-2 0-1-2l3-6 2-1h22l-1 5q0 6-5 12-6 8-17 10-9 2-16-4-7-5-8-14t5-17 17-11q9-1 16 3 5 3 7 9z"/>
      <path fill-rule="nonzero" d="M100 87q-9 1-15-5-6-4-7-12-1-10 5-18 7-9 17-10 9-2 17 3t9 13q2 13-7 21-6 6-15 8zm14-24v-2q-3-10-12-8T91 63t5 12 10-1q8-3 8-11"/>
    </g>
  </symbol>
  <symbol xmlns="http://www.w3.org/2000/svg" id="html5" viewBox="0 0 128 128">
    <path fill="#e44d26" d="M19 114 9 2h110l-10 112-45 12z"/>
    <path fill="#f16529" d="m64 117 36-10 9-96H64z"/>
    <path fill="#ebebeb" d="M64 52H46l-1-14h19V25H29l1 3 3 38h31zm0 36-15-4-1-11H34l2 22 28 8z"/>
    <path fill="#fff" d="M64 52v14h17l-2 18-15 4v15l28-8v-3l4-36v-4h-4zm0-27v13h33v-3l1-7v-3z"/>
  </symbol>
  <symbol xmlns="http://www.w3.org/2000/svg" id="java" viewBox="0 0 128 128">
    <path fill="#0074bd" d="M48 98s-5 3 3 4c10 1 15 1 26-1l7 3c-25 11-56-1-36-6m-3-14s-6 4 2 5c11 1 19 1 34-1l5 3c-30 8-63 0-41-7"/>
    <path fill="#ea2d2e" d="M70 61c6 7-2 13-2 13s16-7 8-17c-6-10-11-14 16-30 0 0-43 11-22 34"/>
    <path fill="#0074bd" d="M102 108s4 3-4 5c-14 5-58 6-71 1-4-2 4-5 7-6h4c-5-4-32 7-14 10 50 8 91-4 78-10M50 70s-23 6-8 8l30-1 19-2-6 3c-23 6-68 3-55-3q18-6 20-5m41 23c23-12 12-24 5-22h-3l2-1c15-5 26 15-5 24z"/>
    <path fill="#ea2d2e" d="M76 2s13 13-12 33c-20 16-4 25 0 35-12-11-20-20-15-29 9-13 33-19 27-39"/>
    <path fill="#0074bd" d="M52 126c23 1 57-1 58-11 0 0-2 4-19 7-19 3-42 3-56 1 0 0 2 2 17 3"/>
  </symbol>
  <symbol xmlns="http://www.w3.org/2000/svg" id="team" viewBox="0 0 640 640">
<!--!Font
    Awesome Free v7.1.0 by @fontawesome - https://fontawesome.com License -
    https://fontawesome.com/license/free Copyright 2025 Fonticons, Inc.-->
    <path fill="#333" d="M320 64a64 64 0 1 1 0 128 64 64 0 0 1 0-128m96 312q-2 39-32 60v92c0 27-21 48-48 48h-32c-26 0-48-21-48-48v-92a72 72 0 0 1-32-60v-40a96 96 0 0 1 192 0zM160 96a56 56 0 1 1 0 112 56 56 0 0 1 0-112m16 240v32q1 50 32 85v79q-13 11-32 12h-32c-26 0-48-21-48-48v-57a64 64 0 0 1-32-55v-32a96 96 0 0 1 132-89q-20 32-20 73m256 192v-75q31-36 32-85v-32q0-41-20-73 17-7 36-7c53 0 96 43 96 96v32q-2 37-32 55v57c0 27-21 48-48 48h-32q-19-1-32-12zm48-432a56 56 0 1 1 0 112 56 56 0 0 1 0-112"/>
  </symbol>
  <symbol xmlns="http://www.w3.org/2000/svg" id="kubernetes" viewBox="0 0 128 128">
    <path fill="#326ce5" d="m64 2-4 1-44 21-5 6L0 77l1 7 1 1 31 38 6 3h50l6-3 31-38a9 8 0 0 0 2-8l-11-47-5-6L68 3zm0 16q2 0 3 3v1l-1 2v5l1 2v1q13 1 22 10h3l3-4 2-2h5q1 2-1 4l-1 1-2 1-4 3v1l-1 1 5 12v12h1l1 1 5 1h3l1 1q2 0 2 3l-4 2-3-1-4-2-2 1h-1q-4 13-15 19v3l2 4 2 2v1q1 2-1 4-2 1-4-2v-1l-1-2-2-5h-1l-1-1-4 1a34 34 0 0 1-20-1l-1 1h-1l-2 5-1 2v1q-2 3-4 2-2-2-1-4v-1l2-2 2-4v-3q-10-6-15-19h-1l-2-1-4 2-3 1-4-2 2-3h1l3-1h4l2-2h1q-1-13 5-24l-1-1v-1l-4-3-2-1-1-1q-2-2-1-4l3-1 1 1h1l2 2 3 4h3a34 34 0 0 1 17-10h5v-1l1-2v-5l-1-2v-1q1-3 3-3m-3 21h-3a27 27 0 0 0-13 8l11 8h1a2 2 0 0 0 3-2zm6 0 1 14a2 2 0 0 0 4 2l11-8a28 28 0 0 0-16-8M40 52a27 27 0 0 0-3 17l13-4 1-1v-3zm47 0-10 9-1 1a2 2 0 0 0 2 3l13 4v-9zM62 62l-3 3 1 4 4 2 4-2 1-4-3-3zm14 11h-1l-1 3v1l5 13a27 27 0 0 0 11-14zm-24 0-14 3a28 28 0 0 0 11 13l5-12 1-2a2 2 0 0 0-3-2m12 6-2 1-7 12a28 28 0 0 0 15 1l3-1-7-12-1-1z"/>
  </symbol>
  <symbol xmlns="http://www.w3.org/2000/svg" id="markdown" viewBox="0 0 128 128">
    <path d="M12 24Q2 25 1 35v58q1 10 11 11h104q10-1 11-11V35q-1-10-11-11zm0 10h104l1 1v58l-1 1H12l-1-1V35z" color="#000" font-family="sans-serif" font-weight="400" overflow="visible" style="line-height:normal;font-variant-ligatures:normal;font-variant-position:normal;font-variant-caps:normal;font-variant-numeric:normal;font-variant-alternates:normal;font-variant-east-asian:normal;font-feature-settings:normal;font-variation-settings:normal;text-indent:0;text-align:start;text-decoration-line:none;text-decoration-style:solid;text-decoration-color:#000;text-transform:none;text-orientation:mixed;white-space:normal;shape-padding:0;shape-margin:0;inline-size:0;isolation:auto;mix-blend-mode:normal;solid-color:#000;solid-opacity:1"/>
    <path d="M21 84V44h11l12 15 12-15h12v40H56V61L44 76 32 61v23zm73 0L76 65h12V44h12v21h11zm0 0"/>
  </symbol>
  <symbol xmlns="http://www.w3.org/2000/svg" id="linux" viewBox="0 0 128 128">
    <path d="M108 81c-1 7-9 20-13 26-5 6-4 11-12 9-7-2-9-2-17-1-8 0-6-1-11 1-5 3-22-26-23-32-1-5-2-4 2-10 3-6 3-12 8-19 4-7 10-11 9-16-1-20-2-30 7-35q13-4 18 0l5 4q3 3 5 10c2 8-1 5 1 15q4 12 12 21c5 8 11 20 9 27"/>
    <path fill="#666" d="m58 32 2-3 1-4-2-5-3-1-2 2-1 3 1 5q1 4 4 3"/>
    <path fill="#6d6d6d" d="m58 32 2-3 1-4-2-5-3-1-2 2-1 3 1 5q0 4 4 3"/>
    <path fill="#757575" d="m58 32 2-3 1-4-2-5-3-1-2 2-1 3 1 5q0 4 4 3"/>
    <path fill="#7c7c7c" d="m58 32 2-3 1-4-2-5-3-1-2 2-1 3 1 5q1 4 4 3"/>
    <path fill="#848484" d="m58 32 2-3 1-4-2-5-3-1-2 2-1 3 1 5q0 4 4 3"/>
    <path fill="#8c8c8c" d="m58 32 2-3 1-4-2-4q-1-3-3-2l-2 2-1 3 1 5q1 4 4 3"/>
    <path fill="#939393" d="m58 32 2-3 1-4-2-4q-1-3-3-1l-2 1-1 3 1 5q1 4 4 3"/>
    <path fill="#9b9b9b" d="m58 32 2-3 1-4-1-4-4-1-2 1-1 3 1 5q1 4 4 3"/>
    <path fill="#a3a3a3" d="m58 32 2-3 1-4-1-4-4-1-2 1-1 3 1 5q1 4 4 3"/>
    <path fill="#aaa" d="m58 32 2-3 1-4-1-4-4-1-2 1-1 3 1 5q1 4 4 3"/>
    <path fill="#b2b2b2" d="m58 32 2-3 1-4-1-4-4-1-2 1-1 3 1 5q1 4 4 3"/>
    <path fill="#bababa" d="m58 32 2-3 1-4-1-4-4-1-2 1-1 3 1 5q1 3 4 3"/>
    <path fill="#c1c1c1" d="m58 32 2-2 1-5-1-4-4-1-2 1-1 3 1 5q1 3 4 3"/>
    <path fill="#c9c9c9" d="m58 32 2-2 1-5-1-4-4-1-2 2-1 2 1 5q1 3 4 3"/>
    <path fill="#d1d1d1" d="m58 32 2-2 1-5-1-4h-4l-2 1-1 2 1 5q1 3 4 3"/>
    <path fill="#d8d8d8" d="m58 32 2-2 1-5-1-4h-4l-2 1-1 2 1 5q1 3 4 3"/>
    <path fill="#e0e0e0" d="m58 32 1-2 2-5-1-4h-4l-2 1-1 2 1 5q1 3 4 3"/>
    <path fill="#e8e8e8" d="m58 32 1-2q2-2 2-5l-1-4h-4l-2 1-1 2 1 6z"/>
    <path fill="#efefef" d="m58 32 1-2q2-2 2-5l-1-3-3-1-3 1-1 2 1 6z"/>
    <path fill="#f7f7f7" d="m58 32 1-2q2-2 2-5l-1-3-3-1-3 1-1 2 1 6z"/>
    <path fill="#fff" d="m58 32 1-2q2-2 2-5l-1-3-3-1-3 1-1 2 1 6z"/>
    <path d="m56 23 2 1 1 2-1 4h-1l-2-1-1-3 1-2zm0 1 2 1v2q-1 1-1-1z"/>
    <path fill="#070707" d="m56 24 2 1v2q-1 1-1-1z"/>
    <path fill="#0f0f0f" d="m56 24 2 1v2q-1 1-1-1z"/>
    <path fill="#161616" d="m56 24 2 1v2q-1 1-1-1z"/>
    <path fill="#1e1e1e" d="m56 24 2 1v2l-1-1z"/>
    <path fill="#262626" d="m56 24 2 1v2l-1-1z"/>
    <path fill="#2d2d2d" d="m56 24 2 1v2l-1-1z"/>
    <path fill="#353535" d="m56 24 2 1v2l-1-1z"/>
    <path fill="#3d3d3d" d="m56 24 2 1v2l-1-1z"/>
    <path fill="#444" d="m56 24 2 1v2l-1-1z"/>
    <path fill="#4c4c4c" d="m56 24 2 1v2l-1-1z"/>
    <path fill="#545454" d="m56 24 2 1v2l-1-1z"/>
    <path fill="#5b5b5b" d="m56 24 2 1v2l-1-1z"/>
    <path fill="#636363" d="m56 24 2 1v2l-1-1z"/>
    <path fill="#6b6b6b" d="m56 24 2 1v2l-1-1z"/>
    <path fill="#727272" d="m56 24 2 1v2l-1-1z"/>
    <path fill="#7a7a7a" d="m56 24 2 1v2l-1-1z"/>
    <path fill="#828282" d="m56 24 2 1v2l-1-1z"/>
    <path fill="#898989" d="m56 24 2 1v2l-1-1z"/>
    <path fill="#919191" d="m56 24 2 1v2l-1-1z"/>
    <path fill="#999" d="M57 24v2l-1-1z"/>
    <path fill="#666" d="M72 32q6 0 5-4 2-3-1-7-1-3-4-3-4 0-6 4v3q0 3 2 5z"/>
    <path fill="#6d6d6d" d="M72 32q6 0 5-4 2-3-1-7-1-3-4-3-5 0-5 4l-1 3q0 3 2 5z"/>
    <path fill="#757575" d="M72 32q6 0 5-4 2-3-1-7-1-3-4-3-5 0-5 4l-1 3q0 3 2 5z"/>
    <path fill="#7c7c7c" d="M72 32q6 0 5-4 2-3-1-7l-4-3q-5 1-5 4l-1 3q0 3 2 5z"/>
    <path fill="#848484" d="M72 32q5 0 5-4 2-3-1-7-1-3-4-2-5-1-5 3l-1 3q0 3 2 5z"/>
    <path fill="#8c8c8c" d="M72 32q5 0 5-4 2-3-1-7-1-2-4-2-5-1-5 3l-1 3q0 3 2 5z"/>
    <path fill="#939393" d="M72 32q5 0 5-4 2-3-1-6-1-4-4-3-5 0-5 3l-1 3q0 3 2 5z"/>
    <path fill="#9b9b9b" d="M72 32q5 0 5-4 2-3-1-6-1-3-4-3-5 0-5 3l-1 3q0 3 2 5z"/>
    <path fill="#a3a3a3" d="M72 32q5 0 5-4 2-3-1-6-1-3-4-3-5 0-5 3l-1 4 2 4z"/>
    <path fill="#aaa" d="M72 32q5-1 5-4 2-3-1-6l-4-3q-5 0-5 3l-1 4 2 4z"/>
    <path fill="#b2b2b2" d="M72 32q5-1 5-4 2-3-1-6-1-2-4-2-5-1-5 2l-1 4 2 4z"/>
    <path fill="#bababa" d="M72 32q5 0 5-4 2-3-1-6-1-3-3-2-6 0-6 2l-1 4 2 4z"/>
    <path fill="#c1c1c1" d="M72 32q5 0 5-4 2-3-1-6-1-3-3-2-6 0-6 2l-1 4 2 4z"/>
    <path fill="#c9c9c9" d="M72 32q5 0 5-4 2-3-1-6-1-3-3-2l-6 2-1 4 2 4z"/>
    <path fill="#d1d1d1" d="M72 32q5 0 5-4 2-3-1-6l-3-2-6 2-1 4 2 4z"/>
    <path fill="#d8d8d8" d="M72 32q5 0 5-4 2-3-1-6l-3-2-6 2-1 4 2 4z"/>
    <path fill="#e0e0e0" d="M72 32q5 0 5-4 2-3-1-6l-3-2-6 2-1 4 2 4z"/>
    <path fill="#e8e8e8" d="M72 32q5 0 5-4 2-3-1-6l-3-1q-5-1-6 1l-1 4 2 4z"/>
    <path fill="#efefef" d="M72 32q5 0 5-4 2-3-1-6l-3-1q-5-1-6 1l-1 4 2 4z"/>
    <path fill="#f7f7f7" d="M72 32q5 0 5-4 2-3-1-6l-3-1-6 1-1 4 2 4z"/>
    <path fill="#fff" d="M72 32q5 0 5-4 2-3-1-6l-3-1-6 1-1 4 2 4z"/>
    <path d="M72 23q3 0 3 3l-1 3-2 1h-3v-4l1-3zm0 0 1 1v2l-1-1z"/>
    <path fill="#070707" d="m72 23 1 1v2l-1-1z"/>
    <path fill="#0f0f0f" d="m72 23 1 1v2l-1-1z"/>
    <path fill="#161616" d="m72 23 1 1v2l-1-1z"/>
    <path fill="#1e1e1e" d="m72 23 1 1v2l-1-1z"/>
    <path fill="#262626" d="m72 23 1 1v2l-1-1z"/>
    <path fill="#2d2d2d" d="m72 23 1 1v2l-1-1z"/>
    <path fill="#353535" d="m72 23 1 1v2l-1-1z"/>
    <path fill="#3d3d3d" d="m72 23 1 1v2l-1-1z"/>
    <path fill="#444" d="m72 23 1 1v2l-1-1z"/>
    <path fill="#4c4c4c" d="m72 23 1 1v2l-1-1z"/>
    <path fill="#545454" d="m72 23 1 1v1h-1z"/>
    <path fill="#5b5b5b" d="m72 23 1 1v1h-1z"/>
    <path fill="#636363" d="m72 23 1 1v1h-1z"/>
    <path fill="#6b6b6b" d="M72 24h1v1z"/>
    <path fill="#727272" d="M72 24h1v1z"/>
    <path fill="#7a7a7a" d="M72 24h1v1z"/>
    <path fill="#828282" d="M72 24h1v1q0 1 0 0z"/>
    <path fill="#898989" d="M72 24h1v1q0 1 0 0z"/>
    <path fill="#919191" d="M72 24h1v1q0 1 0 0z"/>
    <path fill="#999" d="M72 24h1v1q0 1 0 0z"/>
    <path d="m63 24 2 1v1h-2z"/>
    <path fill="#050505" d="m63 24 2 1v1h-2z"/>
    <path fill="#0a0a0a" d="m63 24 2 1v1h-2z"/>
    <path fill="#0f0f0f" d="m63 24 2 1v1h-2z"/>
    <path fill="#141414" d="m63 24 2 1v1h-2z"/>
    <path fill="#191919" d="m63 24 2 1v1h-2z"/>
    <path fill="#1e1e1e" d="M63 25h2v1z"/>
    <path fill="#232323" d="M63 25h2v1z"/>
    <path fill="#282828" d="M63 25h2v1z"/>
    <path fill="#2d2d2d" d="M63 25h2v1z"/>
    <path fill="#333" d="M63 25h2v1z"/>
    <path fill="#383838" d="M63 25h2v1z"/>
    <path fill="#3d3d3d" d="M63 25h2v1z"/>
    <path fill="#424242" d="M63 25h2v1z"/>
    <path fill="#474747" d="M63 25h2v1z"/>
    <path fill="#4c4c4c" d="M63 25h2v1z"/>
    <path fill="#515151" d="M63 25h2v1z"/>
    <path fill="#565656" d="M64 25q-1 0 0 0"/>
    <path fill="#5b5b5b" d="M64 25q-2 0 0 0"/>
    <path fill="#606060" d="M64 25q0 2 0 0-1 0 0 0"/>
    <path fill="#666" d="M64 25q-1 0 0 0m-3 18c-3 0-7-8-8-5l1 6q0 2-3 5l-3 5-1 3v2l-5 11-2 10c0 5 0 4 2 5l5 4 8 7v4l-4 1 4 5q-1 3 13 2 9-2 14-8c5-4 3-5 3-7l4-8 1-2v-4l-1-14-4-9-6-12c-2-5-1-8-5-8-4 1-8 7-13 7"/>
    <path fill="#6d6d6d" d="M61 43c-3 1-7-8-7-4v5l-3 5-3 5v3l-1 2-5 11-2 10c0 5 0 4 2 5l5 4 8 7v4l-4 1 4 5q-1 3 13 2 9-2 14-8c4-4 2-5 3-7l4-8 1-2v-4l-1-14-4-9-6-12c-2-5-1-8-5-7-4 0-8 6-13 6"/>
    <path fill="#757575" d="M61 44c-3 0-7-8-7-5v5l-3 5-2 5-1 3-1 2-5 11-2 10c0 5 0 4 2 5l5 4 8 7v4l-4 1 4 5q-1 3 13 2 9-2 14-8c4-4 2-5 3-7 0-3 4-5 4-8l1-2v-4l-1-14-4-9-6-12c-2-5-1-7-5-7s-8 7-13 7"/>
    <path fill="#7c7c7c" d="M61 44c-3 0-7-8-7-5v5l-3 5-2 5-1 3-1 2-5 11-2 10c0 4 0 3 2 5l5 4 8 7v4l-4 1 4 5q-1 3 13 2 9-2 14-8c4-4 2-5 2-7l5-8 1-2v-4l-1-14-4-9-6-12c-2-4-1-7-5-7s-8 7-13 7"/>
    <path fill="#848484" d="M61 45c-3 0-7-8-7-6v5l-3 5-2 5v3l-2 2-5 11-2 10c0 4 0 3 2 5l5 4 8 7v4l-4 1 4 5q-1 3 13 2 9-3 14-8c4-4 2-5 2-7l5-8 1-2v-4l-1-14-4-9-6-12c-2-4-1-7-5-7-4 1-8 7-13 8"/>
    <path fill="#8c8c8c" d="M61 45c-3 0-7-8-7-5v4l-3 5-2 5v3l-2 2-5 11-2 10c0 4 0 3 2 5l5 4 8 7v4l-4 1 4 5q-1 3 13 2 10-3 14-8t2-7l5-8 1-2v-4l-1-14-4-9-6-12c-2-4-1-7-5-6-4 0-8 7-13 7"/>
    <path fill="#939393" d="M61 45c-3 0-7-7-7-5v4l-3 5-2 5v3l-2 2-5 11-2 10c1 4 0 3 2 5l5 4 8 7v4l-4 1 4 5q-1 3 13 2 10-2 14-8c3-4 1-5 2-7l5-8 1-2v-4l-1-14-4-9-6-12c-2-4-1-6-5-6s-8 7-13 7"/>
    <path fill="#9b9b9b" d="M61 46c-3 0-6-8-7-6v4l-3 6-2 4 1 3-3 2-5 11-2 10c1 4 0 3 2 5l5 4 8 7v4l-4 2 4 4q-1 3 13 2 10-2 14-8c3-4 1-5 2-7l5-8 1-2v-4l-1-14-4-9-6-12c-2-4-1-6-5-6s-8 7-13 8"/>
    <path fill="#a3a3a3" d="M61 46c-3 0-6-8-7-5v3l-3 6-2 4 1 3-3 2-5 11-2 10c1 4 0 3 2 5l5 4 8 7v4l-4 2 4 4q-1 3 13 2 10-2 14-8 3-5 1-8l6-7 1-2v-5l-1-13-4-8q-3-9-6-13c-2-4-1-6-5-6-4 1-8 8-13 8"/>
    <path fill="#aaa" d="M61 46c-2 0-6-7-7-5v3l-3 6-2 4 1 3-3 2-5 11-2 10q0 4 2 4l5 5 8 7v4l-4 2 4 4q0 3 13 2 10-2 14-8 3-6 1-8l6-7 1-2v-5l-1-13-4-8-6-13q-2-6-5-5c-4 0-8 7-13 7"/>
    <path fill="#b2b2b2" d="M61 47c-2 0-6-8-7-6v4l-3 5-2 4q2 2 1 3l-3 2-5 11q-2 4-1 10-1 4 1 4l5 5 8 6v5l-4 2 4 4q0 3 13 2 11-3 14-8l1-8 6-7 1-2v-5l-1-13-4-8-6-13q-2-5-5-5c-4 0-8 7-13 8"/>
    <path fill="#bababa" d="M61 47c-2 0-6-7-7-6v4l-3 5-2 4 2 3-4 3-5 10q-2 4-1 10-1 4 1 4l5 5 8 6v5l-4 2 4 4q0 3 13 2 11-2 14-8l1-8 6-7 1-2v-5q1-7-2-13l-4-8q-2-8-5-13-2-5-5-5c-4 1-8 8-13 8"/>
    <path fill="#c1c1c1" d="M61 47c-2 0-6-7-6-5l-1 3-3 5-1 4 1 3-3 3-6 10q-2 4-1 10-1 4 1 4l5 5 8 6v5l-4 2 4 4q0 3 13 2 11-3 14-8l1-8c0-3 5-4 6-7l1-2v-5q1-7-2-13l-4-8q-2-8-5-13-2-5-4-5c-5 1-9 8-14 8"/>
    <path fill="#c9c9c9" d="M61 48c-2 0-6-7-6-6l-1 3-3 5-1 4 1 3-3 3-6 10q-2 4-1 10-1 4 1 4l5 5 8 6v5l-4 2 4 4q0 3 13 2 11-3 14-8 2-5 0-8l7-7 1-2v-5q1-7-2-13l-4-8q-2-8-5-13-2-5-4-4c-4 0-9 8-14 8"/>
    <path fill="#d1d1d1" d="M61 48c-2 0-6-7-6-6l-1 3-3 5-1 4 2 3-4 3-6 10q-2 4-1 10-1 4 1 4l5 5 8 6v5l-4 2 4 4q0 3 13 2 11-3 14-8v-8c1-3 6-4 7-7l1-2v-5q1-7-2-13l-4-8q-2-8-5-13-2-4-4-4c-4 0-9 8-14 8"/>
    <path fill="#d8d8d8" d="M61 48c-2 0-5-6-6-5l-1 2-3 5-1 4 2 3-4 3-6 10q-2 5-1 10-1 4 1 4l5 5 8 6v5l-3 2 3 4q0 3 13 2 11-3 14-8v-8c1-3 6-4 7-7v-2l1-5q0-7-2-13l-4-8q-2-8-5-13-2-4-4-4c-4 1-9 8-14 8"/>
    <path fill="#e0e0e0" d="M61 49c-2 0-5-7-6-6l-1 2-3 5-1 4 2 3-4 3-6 10q-2 5-1 10-1 3 1 4l5 5 8 6 1 5-4 2 3 4q0 3 13 1 12-2 14-7v-8c1-3 6-4 7-7v-2l1-5q1-7-2-13l-4-8q-2-8-5-13l-4-4c-4 1-9 9-14 9"/>
    <path fill="#e8e8e8" d="M61 49c-2 0-5-6-6-6l-1 2-3 5-1 4 3 3-5 3-6 10q-2 5-1 10-1 3 1 4l5 5 8 6 1 5-4 2 3 4q0 3 13 1 12-2 14-7v-8c0-3 6-4 7-7v-2l1-5-2-13-4-8q-2-8-5-13-2-4-4-3c-4 0-9 8-14 8"/>
    <path fill="#efefef" d="M61 49c-2 1-5-6-6-6l-1 2-3 5-1 4 3 3-5 3-6 10q-2 5-1 10-1 3 1 4l5 5 8 6 1 5-4 2 3 4q0 3 13 1 12-2 14-7l-1-8c1-3 7-4 8-7v-2l1-5-2-13-4-8q-2-8-5-13-2-3-4-3c-4 0-9 8-14 8"/>
    <path fill="#f7f7f7" d="M61 50c-2 0-5-6-6-6l-1 1-3 5-1 4 3 3-5 3q-5 6-6 10l-1 10q-1 3 1 4l5 5 8 6 1 5-4 2 3 4q0 3 13 1 12-2 14-7l-1-8c1-3 7-4 8-7v-2l1-5-2-13-4-8q-2-8-5-13-1-3-4-3c-4 1-9 9-14 9"/>
    <path fill="#fff" d="M61 50c-2 0-5-6-6-6l-1 1-3 5-1 4 4 3-6 3-6 10-1 10q-1 3 1 4l5 5 8 6 1 5-4 2 3 4q0 3 13 1 12-2 14-7l-1-8c1-3 7-4 8-7v-2l1-5-2-13-4-8q-2-8-5-13-1-3-4-2c-4 0-9 8-14 8"/>
    <path fill="#995900" d="m63 27 5 1 3 2q6 1 7 4-1 5-4 5l-9 5h-5l-4-4q-3-2-3-5t3-4l4-3z"/>
    <path fill="#9e5f00" d="m63 27 5 1 3 2q6 1 6 4 0 5-3 5l-9 5-5-1-4-3q-3-2-3-5t3-4l4-3z"/>
    <path fill="#a36400" d="m63 27 5 1 3 2q6 1 6 4 0 4-3 5l-9 5-5-1-4-3q-3-2-3-5t3-4l4-3z"/>
    <path fill="#a86a00" d="m63 27 5 1 3 2q6 1 6 4 0 4-3 5l-9 5-5-1-4-3q-3-3-3-5 0-3 3-4l4-3z"/>
    <path fill="#ad7000" d="m63 27 5 1 3 2q6 1 6 4 0 4-4 5-3 3-8 4h-5l-4-3-3-5q0-2 3-4l4-3z"/>
    <path fill="#b27600" d="m63 27 5 1 3 2q6 1 6 4 0 4-4 5l-8 4h-5l-4-3-3-5q0-2 3-4l4-3z"/>
    <path fill="#b77b00" d="m63 27 5 1 3 2q5 1 6 4 0 4-4 5l-8 4h-5l-4-3-3-5q0-2 3-4l4-3z"/>
    <path fill="#bc8100" d="m63 27 5 1 3 2q5 1 6 4 0 4-4 5l-8 4h-4l-5-4-3-4 3-4 4-3z"/>
    <path fill="#c18700" d="m63 27 5 1 3 2q5 0 6 4 0 4-4 5l-8 4h-4l-4-4q-4-1-4-4l3-4 4-3z"/>
    <path fill="#c68d00" d="m63 27 5 1 3 2q4 1 6 4 0 4-4 5l-8 4h-4l-4-4q-4-1-3-4l2-4 4-3z"/>
    <path fill="#cc9200" d="m63 27 5 1 3 2q5 1 6 4 0 4-4 5l-8 4h-4l-4-4q-4-1-3-4l3-4 3-3z"/>
    <path fill="#d19800" d="M63 28h5l3 2q5 0 6 4 0 4-4 5l-8 4h-4l-4-4q-3-1-3-4l3-4 3-3z"/>
    <path fill="#d69e00" d="M63 28h5l3 2q5 1 6 4 0 4-4 5l-8 4-4-1-4-3q-3-1-3-4l3-4 3-3z"/>
    <path fill="#dba300" d="M63 28h5l3 2q5 1 6 4 0 4-4 5l-8 4-4-1-4-3q-3-1-3-4l3-4 3-3z"/>
    <path fill="#e0a900" d="M63 28q3-1 5 1l3 1q5 1 6 4 0 4-4 5l-8 3h-4l-4-3q-3-1-3-4l3-4 3-3z"/>
    <path fill="#e5af00" d="M63 28q3-1 5 1l3 1q4 1 6 4 0 4-4 5l-8 3h-4l-4-3q-3-1-3-4l3-4 3-3z"/>
    <path fill="#eab500" d="M64 28q2-1 4 1l3 1q5 0 6 4 0 4-4 5l-8 3h-4l-4-3-3-4 3-4 3-3z"/>
    <path fill="#efba00" d="m64 28 4 1 3 1q5 0 6 4 0 4-4 5l-8 3h-4l-4-3-3-4 3-4 3-3z"/>
    <path fill="#f4c000" d="m64 28 4 1 3 1q5 1 6 4 0 4-4 5l-8 3h-4l-4-3-2-4 2-4 3-3z"/>
    <path fill="#f9c600" d="m64 28 4 1 2 1q6 0 7 4-1 4-4 5l-8 3h-4l-4-3q-3-2-2-4l2-4 3-3z"/>
    <path fill="#fc0" d="m64 28 4 1 2 1q6 1 7 4 0 4-4 5l-8 3h-4l-4-4q-2-1-2-3l2-4 4-3zm0 1 2 1h1l-1-1z"/>
    <path fill="#f9c600" d="m64 29 2 1h1l-1-1z"/>
    <path fill="#f4c000" d="m64 29 2 1h1l-1-1z"/>
    <path fill="#efba00" d="m64 29 2 1h1l-1-1z"/>
    <path fill="#eab500" d="m64 29 2 1h1l-1-1z"/>
    <path fill="#e5af00" d="m64 29 2 1h1l-1-1z"/>
    <path fill="#e0a900" d="m64 29 2 1h1l-1-1z"/>
    <path fill="#dba300" d="m64 29 2 1h1l-1-1z"/>
    <path fill="#d69e00" d="m64 29 2 1h1l-1-1z"/>
    <path fill="#d19800" d="m64 29 2 1v-1z"/>
    <path fill="#cc9200" d="m64 29 2 1v-1z"/>
    <path fill="#c68c00" d="m64 29 2 1v-1z"/>
    <path fill="#c18700" d="m64 29 2 1v-1z"/>
    <path fill="#bc8100" d="M65 29v-1z"/>
    <path fill="#b77b00" d="M65 29v-1z"/>
    <path fill="#b27500" d="M65 29v1z"/>
    <path fill="#ad7000" d="M65 29v1z"/>
    <path fill="#a86a00" d="M65 29v1z"/>
    <path fill="#a36400" d="M65 29v1z"/>
    <path fill="#9e5e00" d="M65 29v1z"/>
    <path fill="#995900" d="M65 29v1z"/>
    <path fill="#fc0" d="M59 30h1l1-1h-1z"/>
    <path fill="#f9c600" d="M59 30h1l1-1h-1z"/>
    <path fill="#f4c000" d="M59 30h1l1-1h-1z"/>
    <path fill="#efba00" d="M59 30h1l1-1h-1z"/>
    <path fill="#eab500" d="M59 30h1l1-1h-1z"/>
    <path fill="#e5af00" d="M59 30h1l1-1h-1z"/>
    <path fill="#e0a900" d="M59 30h1l1-1h-1z"/>
    <path fill="#dba300" d="M59 30h1l1-1h-1z"/>
    <path fill="#d69e00" d="M59 30h1l1-1h-1z"/>
    <path fill="#d19800" d="M59 30h1l1-1h-1z"/>
    <path fill="#cc9200" d="M59 30h1l1-1h-1z"/>
    <path fill="#c68c00" d="M59 30h1l1-1h-1z"/>
    <path fill="#c18700" d="M59 30h1l1-1h-1z"/>
    <path fill="#bc8100" d="M59 30h1l1-1h-1z"/>
    <path fill="#b77b00" d="M59 30h1l1-1h-1z"/>
    <path fill="#b27500" d="M59 30h1l1-1h-1z"/>
    <path fill="#ad7000" d="m59 30 1-1h-1z"/>
    <path fill="#a86a00" d="m59 30 1-1h-1z"/>
    <path fill="#a36400" d="m59 30 1-1h-1z"/>
    <path fill="#9e5e00" d="m59 30 1-1h-1z"/>
    <path fill="#995900" d="m59 30 1-1h-1z"/>
    <path fill="#fc0" d="m60 37 3-2 1-3v-2l-1-1-1 2z"/>
    <path fill="#ffcc02" d="m60 36 3-1 1-3v-2l-1-1-1 2z"/>
    <path fill="#ffcc05" d="m61 36 2-1 1-3v-2l-1-1-1 2z"/>
    <path fill="#ffcc07" d="m61 36 2-1 1-3v-2l-1-1-1 2z"/>
    <path fill="#ffcd0a" d="m61 36 2-1 1-3v-2h-1l-1 1z"/>
    <path fill="#ffcd0c" d="m61 36 2-2 1-2v-2h-1l-1 1z"/>
    <path fill="#ffcd0f" d="m61 36 2-2 1-2v-2h-1l-1 1z"/>
    <path fill="#ffcd11" d="m61 36 2-2 1-2v-2h-1l-1 1z"/>
    <path fill="#ffce14" d="m61 35 2-1 1-2v-2h-1l-1 1z"/>
    <path fill="#ffce16" d="m61 35 2-1 1-2v-2h-1l-1 1z"/>
    <path fill="#ffce19" d="m61 35 2-1 1-2v-2h-1v1z"/>
    <path fill="#ffce1c" d="m61 35 2-1 1-2v-2h-1v1z"/>
    <path fill="#ffcf1e" d="m61 35 2-1 1-2v-2h-1v1z"/>
    <path fill="#ffcf21" d="m62 35 1-1 1-2v-2h-1v1z"/>
    <path fill="#ffcf23" d="m62 35 1-2 1-1v-2h-1v1z"/>
    <path fill="#ffcf26" d="m62 34 1-1 1-1v-2h-1v1z"/>
    <path fill="#ffd028" d="m62 34 1-1 1-1v-2h-1v1z"/>
    <path fill="#ffd02b" d="m62 34 1-1 1-1v-2h-1v1z"/>
    <path fill="#ffd02d" d="m62 34 1-1 1-1v-2h-1v1z"/>
    <path fill="#ffd030" d="m62 34 1-1 1-1v-2h-1v1z"/>
    <path fill="#ffd133" d="m62 34 1-1 1-1v-2h-1v1z"/>
    <path fill="#fc0" d="m68 33-3 3-1 2 5-2q4-2 4-5h-4z"/>
    <path fill="#ffcc02" d="m68 33-3 3-1 2q2 1 5-2l4-4-4-1z"/>
    <path fill="#ffcc05" d="m68 33-2 3-2 2q2 1 5-2l4-4-4-1z"/>
    <path fill="#ffcc07" d="m68 33-2 3-2 2q2 1 5-2l4-4-4-1z"/>
    <path fill="#ffcd0a" d="m68 33-2 3-2 2q2 1 5-2 5-3 3-4h-3z"/>
    <path fill="#ffcd0c" d="m68 33-2 3q-2 0-1 2l4-2q5-3 3-4h-3z"/>
    <path fill="#ffcd0f" d="m68 33-2 3q-2 0-1 2l4-2q5-3 3-4h-3z"/>
    <path fill="#ffcd11" d="m68 33-2 3q-2 0-1 2l4-2q5-3 3-4h-3z"/>
    <path fill="#ffce14" d="m68 33-2 3-1 2 4-2q4-3 3-4h-3z"/>
    <path fill="#ffce16" d="m68 33-2 3-1 2 4-2q4-3 3-4h-3z"/>
    <path fill="#ffce19" d="m68 33-2 3-1 1 4-1q4-3 3-4h-3z"/>
    <path fill="#ffce1c" d="m68 33-2 2-1 2q2 1 4-1 4-3 3-4h-3z"/>
    <path fill="#ffcf1e" d="m68 33-2 2-1 2q2 1 4-1 4-3 3-4h-3z"/>
    <path fill="#ffcf21" d="m68 33-2 2-1 2q2 1 4-2 4-2 3-3h-3z"/>
    <path fill="#ffcf23" d="m68 33-1 2-2 2q2 1 4-2 4-1 3-3h-3z"/>
    <path fill="#ffcf26" d="m68 33-1 2-2 2q2 1 4-2l3-3h-3z"/>
    <path fill="#ffd028" d="m68 34-1 1-1 2 3-2 3-3h-3z"/>
    <path fill="#ffd02b" d="m68 34-1 1-1 2 3-2 3-3-3 1z"/>
    <path fill="#ffd02d" d="m69 34-2 1q-2 1-1 2l3-2q2-1 2-3l-2 1z"/>
    <path fill="#ffd030" d="m69 34-2 1-1 2 3-2q3-1 2-3l-2 1z"/>
    <path fill="#ffd133" d="m69 34-2 1-1 2 3-2 2-2h-2z"/>
    <path fill="#fff" d="M70 56c0-1 9-3 11-2l7 11q-2 0-8-5z"/>
    <path fill="#f9f9f9" d="M70 56c0-1 9-3 11-2l7 11q-2 0-8-5z"/>
    <path fill="#f4f4f4" d="M70 56c1-1 9-3 11-2 1 1 8 10 7 11l-8-5z"/>
    <path fill="#efefef" d="m71 56 10-2c1 1 8 10 7 11l-8-5c-4-2-10-3-9-4"/>
    <path fill="#eaeaea" d="m71 56 10-2c1 1 8 10 6 11q-1-2-7-5z"/>
    <path fill="#e5e5e5" d="m71 56 10-2 6 10c-1 1-3-3-7-4z"/>
    <path fill="#e0e0e0" d="m71 56 10-2 6 10-7-5z"/>
    <path fill="#dbdbdb" d="M72 56c0-1 7-2 9-1 1 0 7 8 6 9l-7-5z"/>
    <path fill="#d6d6d6" d="M72 56s7-2 9-1c1 0 7 8 6 9l-7-5z"/>
    <path fill="#d1d1d1" d="M72 56c1 0 7-2 9-1 1 0 7 8 6 9l-7-5z"/>
    <path fill="#ccc" d="M73 56s7-2 8-1l6 8-7-4c-3-2-8-2-7-3"/>
    <path fill="#c6c6c6" d="m73 56 8-1 5 8-6-4z"/>
    <path fill="#c1c1c1" d="m73 56 8-1 5 8-6-4z"/>
    <path fill="#bcbcbc" d="m73 56 8-1c1 1 6 7 5 8l-6-4z"/>
    <path fill="#b7b7b7" d="m74 56 7-1c1 1 6 7 5 8l-6-4z"/>
    <path fill="#b2b2b2" d="m74 56 7-1 5 7-6-3z"/>
    <path fill="#adadad" d="M74 56h7l5 6-6-4z"/>
    <path fill="#a8a8a8" d="M74 56h7l5 6-6-4z"/>
    <path fill="#a3a3a3" d="M75 56h6l5 6-6-4z"/>
    <path fill="#9e9e9e" d="M75 56h6c1 0 5 5 4 6l-5-4z"/>
    <path fill="#999" d="m75 57 6-1c1 0 5 5 4 6s-2-3-5-4z"/>
    <path fill="#fff" d="M59 70v19q-2 0-2-8z"/>
    <path fill="#f9f9f9" d="m58 70 1 11v7q-2 2-2-7z"/>
    <path fill="#f4f4f4" d="m58 70 1 11v7q-2 2-2-7z"/>
    <path fill="#efefef" d="M58 70v11l1 7q-2 1-2-7z"/>
    <path fill="#eaeaea" d="M58 71v10l1 7q-2 1-2-7z"/>
    <path fill="#e5e5e5" d="M58 71v10l1 7q-2 1-2-7z"/>
    <path fill="#e0e0e0" d="M58 71v17l-1-7z"/>
    <path fill="#dbdbdb" d="M58 71v17l-1-7z"/>
    <path fill="#d6d6d6" d="M58 71v17l-1-7z"/>
    <path fill="#d1d1d1" d="M58 71v16l-1-6z"/>
    <path fill="#ccc" d="M58 71v16l-1-6z"/>
    <path fill="#c6c6c6" d="M58 71v16l-1-6z"/>
    <path fill="#c1c1c1" d="M58 72v15l-1-6z"/>
    <path fill="#bcbcbc" d="M58 72v15l-1-6z"/>
    <path fill="#b7b7b7" d="M58 72v15l-1-6z"/>
    <path fill="#b2b2b2" d="M58 72v15l-1-6z"/>
    <path fill="#adadad" d="M58 72v14l-1-5z"/>
    <path fill="#a8a8a8" d="M58 72v14l-1-5z"/>
    <path fill="#a3a3a3" d="M58 72v14l-1-5z"/>
    <path fill="#9e9e9e" d="M58 72v14l-1-5z"/>
    <path fill="#999" d="M58 73v13l-1-5z"/>
    <path fill="#fff" d="m61 56 4-1-3 2-2 1v-1l-2-2z"/>
    <path fill="#fbfbfb" d="m61 56 4-1zl-2 1v-1l-2-2z"/>
    <path fill="#f8f8f8" d="m61 56 4-1zl-1 1-1-1-2-2z"/>
    <path fill="#f5f5f5" d="m61 56 3-1-2 2-1 1-1-1-2-2z"/>
    <path fill="#f2f2f2" d="m61 56 3-1-2 2-1 1-1-1-2-2z"/>
    <path fill="#efefef" d="m61 56 3-1zl-1 1-1-1-2-2z"/>
    <path fill="#ebebeb" d="m61 56 3-1zl-1 1-1-1-2-2z"/>
    <path fill="#e8e8e8" d="m61 56 3-1zl-1 1-1-1-2-2z"/>
    <path fill="#e5e5e5" d="m61 56 3-1zl-1 1-1-1-2-2z"/>
    <path fill="#e2e2e2" d="m61 56 3-1zl-1 1-1-1q-2-1-1-2z"/>
    <path fill="#dfdfdf" d="M61 56h3zh-2q-2-1-1-2z"/>
    <path fill="#dbdbdb" d="M61 56h3zh-2q-2-1-1-2z"/>
    <path fill="#d8d8d8" d="M61 56h3zh-2l-1-2z"/>
    <path fill="#d5d5d5" d="M61 56h3zh-2l-1-2z"/>
    <path fill="#d2d2d2" d="M61 56h3zh-2l-1-2z"/>
    <path fill="#cfcfcf" d="M61 56h3zh-2l-1-1z"/>
    <path fill="#ccc" d="M61 56h3zh-1zh-1z"/>
    <path fill="#c8c8c8" d="M61 56h2zh-1zh-1z"/>
    <path fill="#c5c5c5" d="M61 56h2zh-1zh-1z"/>
    <path fill="#c2c2c2" d="M61 56h2zh-1zh-1z"/>
    <path fill="#bfbfbf" d="M61 56h2zh-1zh-1z"/>
    <path d="M72 6v6l7-2c2-1-6-6-7-4"/>
    <path fill="#060606" d="m73 6-1 6 7-2c2-1-6-6-6-4"/>
    <path fill="#0c0c0c" d="M73 6c-1 1-2 7 0 6l5-2c2-1-5-6-5-4"/>
    <path fill="#131313" d="M73 6v6l5-2c2-1-5-6-5-4"/>
    <path fill="#191919" d="M73 6v6l5-2c2-1-5-5-5-4"/>
    <path fill="#1f1f1f" d="M73 6v6l5-2c1-1-5-5-5-4"/>
    <path fill="#262626" d="M73 6v5l5-1c1-1-4-5-5-4"/>
    <path fill="#2c2c2c" d="M73 6v5l4-2c2 0-3-4-4-3"/>
    <path fill="#333" d="M73 7v4l4-2c1 0-3-4-4-2"/>
    <path fill="#393939" d="M73 7v4l4-2c1 0-3-4-4-2"/>
    <path fill="#3f3f3f" d="M73 7v4l4-2c1 0-3-3-4-2"/>
    <path fill="#464646" d="M73 7v4l4-2q-1-2-4-2"/>
    <path fill="#4c4c4c" d="M73 7v3l3-1q0-2-3-2"/>
    <path fill="#525252" d="M73 7v3l3-1q0-3-3-2"/>
    <path fill="#595959" d="M73 7v3l3-1q-1-2-3-2"/>
    <path fill="#5f5f5f" d="M74 7v3l2-1z"/>
    <path fill="#666" d="M74 8v2l2-1z"/>
    <path fill="#6c6c6c" d="M74 8v2l1-1z"/>
    <path fill="#727272" d="M74 8v1l1-1z"/>
    <path fill="#797979" d="M74 8v1l1-1z"/>
    <path fill="#7f7f7f" d="M74 8v1z"/>
    <path d="m56 17 4 2 2 2q1-1-2-3-3-3-4-1"/>
    <path fill="#050505" d="m56 17 4 2q0 2 2 2 1-1-2-3-3-3-4-1"/>
    <path fill="#0a0a0a" d="m56 17 4 2 1 2q2-1-1-3-2-3-4-1"/>
    <path fill="#0f0f0f" d="m57 17 3 2 1 2q2-1-1-3-2-3-3-1"/>
    <path fill="#141414" d="m57 17 3 2q0 2 1 1l-1-2q-2-3-3-1"/>
    <path fill="#191919" d="m57 17 3 2q0 2 1 1l-1-2q-2-2-3-1"/>
    <path fill="#1e1e1e" d="m57 17 3 2q0 2 1 1l-1-2z"/>
    <path fill="#232323" d="m57 17 3 2q0 2 1 1l-1-2z"/>
    <path fill="#282828" d="m57 17 3 2 1 1-1-2z"/>
    <path fill="#2d2d2d" d="m57 17 3 2 1 1-1-2z"/>
    <path fill="#333" d="m58 17 2 2 1 1-1-2z"/>
    <path fill="#383838" d="m58 17 2 2 1 1-1-2z"/>
    <path fill="#3d3d3d" d="m58 17 2 2 1 1-1-2z"/>
    <path fill="#424242" d="m58 18 2 1 1 1-1-2z"/>
    <path fill="#474747" d="m58 18 2 1 1 1-1-2z"/>
    <path fill="#4c4c4c" d="m58 18 2 1 1 1-1-2z"/>
    <path fill="#515151" d="m59 18 1 1-1-2z"/>
    <path fill="#565656" d="m59 18 1 1-1-2z"/>
    <path fill="#5b5b5b" d="m59 18 1 1-1-2z"/>
    <path fill="#606060" d="M59 18h1l-1-1z"/>
    <path fill="#666" d="M59 18h1l-1-1z"/>
    <path d="m72 16 2 1 2 2 2 2q1-2-1-2l-2-2z"/>
    <path fill="#060606" d="m72 16 2 1 2 2 2 2q1-2-1-2l-2-2z"/>
    <path fill="#0c0c0c" d="m72 16 2 1 2 2 2 2-1-2-2-2z"/>
    <path fill="#131313" d="M72 17h2l2 2 2 2-1-2-2-2z"/>
    <path fill="#191919" d="m73 17 2 2 2 2-1-2-2-2z"/>
    <path fill="#1f1f1f" d="M73 17h1l2 2 2 1-1-1-2-2z"/>
    <path fill="#262626" d="M73 17h1l2 2 2 1-1-2-2-1z"/>
    <path fill="#2c2c2c" d="M73 17h1l2 2 2 1-1-2-2-1z"/>
    <path fill="#333" d="M73 17h1l2 2 2 1-1-2-2-1z"/>
    <path fill="#393939" d="M73 17h1l2 2 2 1-1-2-2-1z"/>
    <path fill="#3f3f3f" d="M73 17h1l2 2 2 1-1-2-2-1z"/>
    <path fill="#464646" d="M73 17h1l2 2 2 1-1-2-2-1z"/>
    <path fill="#4c4c4c" d="M73 17h1l2 1 1 2v-2l-2-1z"/>
    <path fill="#525252" d="M73 17h1l2 1 1 2v-2l-2-1z"/>
    <path fill="#595959" d="m74 17 1 1 1 2v-2z"/>
    <path fill="#5f5f5f" d="m74 17 1 1 1 2v-2z"/>
    <path fill="#666" d="m74 17 1 1 1 1v-1z"/>
    <path fill="#6c6c6c" d="m74 17 1 1 1 1v-1z"/>
    <path fill="#727272" d="m74 17 1 1 1 1v-1z"/>
    <path fill="#797979" d="m74 17 1 1 1 1-1-1z"/>
    <path fill="#7f7f7f" d="m74 17 1 1 1 1-1-1z"/>
    <path fill="#995900" d="m108 86 1 7q3 5 6 6l3 3-2 3-10 6-8 6q-3 3-8 3l-6-1-2-7 2-12v-8l1-7 3-1 3 1v3l1 3 4 1 4-1 3-2 2-3z"/>
    <path fill="#9e5e00" d="m108 86 1 7q3 5 6 6l3 3-2 3-10 6-8 6q-3 3-7 3-5 0-6-2-2-1-3-6l2-12v-8l1-7 3-1 3 1v3q-1 2 1 3l4 1q3 1 4-1l3-2 2-3z"/>
    <path fill="#a36400" d="m108 86 1 7q3 5 6 6l3 3-2 3-10 6-8 6q-3 3-7 3-5 0-6-2-2-1-2-7l1-11v-8l1-7 3-1 3 1v3q-1 2 1 3l4 2 4-1 3-3 2-3z"/>
    <path fill="#a86a00" d="m108 86 1 7q3 5 6 6l3 3-2 3-10 6-8 6q-3 3-7 2l-6-1q-2-1-2-7l1-11v-8l1-7 3-1 3 1v3q-1 2 1 3 0 2 4 2l4-1 3-3 2-3z"/>
    <path fill="#ad7000" d="m108 86 1 7q3 5 6 6l3 3-2 3-10 6-8 5q-3 3-7 3l-6-2-2-6 2-11-1-8 1-7 3-1 3 1v3q-1 2 1 3 0 2 3 2l5-1 3-3 2-3z"/>
    <path fill="#b27500" d="m108 86 1 7q3 5 6 6l3 3-2 3-10 6-8 5q-3 3-7 3l-6-2-2-6 2-11V85l3-1 3 1-1 3 1 3 4 2 5-1 3-3 2-3z"/>
    <path fill="#b77b00" d="m108 86 1 7q3 5 6 6l3 3-2 3-10 6-8 5q-3 3-7 2l-5-1-2-6 1-11V85l3-1 3 1-1 3 1 4 4 1q4 1 5-1l3-3 2-3z"/>
    <path fill="#bc8100" d="m108 86 1 7q3 5 6 6l3 3-2 3-10 6-8 5-7 2q-4 0-5-2-2-1-2-5l1-11V85l3-1 3 1-1 3 1 4 4 2q4 0 5-2l3-3 2-3z"/>
    <path fill="#c18700" d="m108 86 1 7q3 5 6 6l3 3-2 3-10 6-9 5-6 2-5-2-2-5 1-11V85l3-1 3 1-1 3 1 4 4 2q4 0 5-2l3-3 2-3z"/>
    <path fill="#c68c00" d="m108 86 1 7q3 5 6 6l3 3-2 3-11 6-8 4q-2 2-6 2l-5-1-2-5 2-11-1-8v-7l3-1 3 1-1 3 1 4 4 2 6-2 2-3 2-3z"/>
    <path fill="#cc9200" d="m108 86 1 7q3 5 6 6l3 3-2 3-11 6-8 4-6 2-4-2-3-4 2-11-1-8v-7l3-1 3 1-1 3q-1 2 1 4l4 2q4 0 6-2l2-3 2-3z"/>
    <path fill="#d19800" d="m108 86 1 7q3 5 6 6l3 3-2 3-11 6-8 4-6 2-4-2q-2-1-2-5t1-10l-1-8v-7l3-1 3 1-1 3q-1 2 1 4l4 3q4 0 6-3l2-3 2-3z"/>
    <path fill="#d69e00" d="m108 86 1 7q3 5 6 6l3 3-2 3-11 6-8 4q-2 2-6 1l-4-1q-2-1-2-5l1-10-1-8v-7l3-1 3 1-1 3q-2 2 1 4 1 3 4 3 4 0 6-3l2-3 2-3z"/>
    <path fill="#dba300" d="m108 86 1 7q3 5 6 6l3 3-2 3-11 6-8 4-6 1-4-1-2-5 1-10-1-8v-7l3-1 3 1-1 3v5l5 2q4 0 6-3l2-3 2-3z"/>
    <path fill="#e0a900" d="m108 86 1 7q3 5 6 6l3 3-2 3-11 6-8 3-6 2-4-2-2-4 1-10-1-8v-7l3-1 3 1-1 3v5l5 2 6-2 2-4 2-3z"/>
    <path fill="#e5af00" d="m108 86 1 7q3 5 6 6l3 3-2 3-11 6-8 3q-2 2-5 1l-4-1-2-4 1-10-2-8v-7l3-1 3 1-1 3v5l5 2 6-2 2-4 2-3z"/>
    <path fill="#eab500" d="m108 86 1 7q3 5 6 6l3 3-2 3-11 5-8 4-5 1-4-1-2-4 1-10-2-8v-7l3-1 3 1-1 3v5l5 3q5-1 6-3l2-4 2-3z"/>
    <path fill="#efba00" d="m108 86 1 7q3 5 6 6l3 3-2 3-11 5-9 4-4 1-4-2-2-3 1-10-2-8v-7l3-1 3 1-1 3v5q2 3 5 3 4 0 6-3l2-4 2-3z"/>
    <path fill="#f4c000" d="m108 86 1 7q3 5 6 6l3 3-2 3-11 5-9 4h-4l-4-1-2-3 1-10-2-8v-7l3-1 3 1-1 3q-2 2 0 5t5 3 6-3l2-4 2-3z"/>
    <path fill="#f9c600" d="m108 86 1 7q3 5 6 6l3 3-2 3-11 5-9 3-4 1-4-1-2-4 1-9-1-8q-2-6-1-7l3-1 3 1-1 3q-3 2 0 5 1 3 5 3 5 0 6-3l2-4 2-3z"/>
    <path fill="#fc0" d="m108 86 1 7q3 5 6 6l3 3-2 3-11 5-9 3-4 1-3-2q-2 0-2-3v-9l-1-8q-2-6-1-7l3-1 3 1-1 3q-3 2-1 6l6 2q4 0 6-3l2-4 2-3zm-22 5-1-5 3-1h2v3z"/>
    <path fill="#ffcc02" d="m86 91-1-5 3-1h2v3z"/>
    <path fill="#ffcc05" d="m86 90-1-4 3-1h2v3z"/>
    <path fill="#ffcc07" d="m86 90-1-4 3-1h2v3z"/>
    <path fill="#ffcd0a" d="m86 90-1-4 3-1h2v3z"/>
    <path fill="#ffcd0c" d="m86 90-1-4 3-1h2v3z"/>
    <path fill="#ffcd0f" d="m86 90-1-4 3-1 2 1v2z"/>
    <path fill="#ffcd11" d="m87 90-2-4 3-1 2 1v2z"/>
    <path fill="#ffce14" d="m87 90-2-4 3-1 2 1v2z"/>
    <path fill="#ffce16" d="m87 89-2-3 3-1 2 1v2z"/>
    <path fill="#ffce19" d="m87 89-2-3 3-1 2 1v2z"/>
    <path fill="#ffce1c" d="m87 89-2-3 3-1 2 1v2z"/>
    <path fill="#ffcf1e" d="m87 89-2-3 3-1 2 1v2z"/>
    <path fill="#ffcf21" d="m87 89-2-3 3-1 2 1v2z"/>
    <path fill="#ffcf23" d="m87 89-1-3 2-1 2 1q1 1-1 2z"/>
    <path fill="#ffcf26" d="m87 88-1-2 2-1 2 1q1 1-1 2z"/>
    <path fill="#ffd028" d="m87 88-1-2 2-1 2 1q1 1-1 2z"/>
    <path fill="#ffd02b" d="m87 88-1-2 2-1 2 1q1 1-1 2z"/>
    <path fill="#ffd02d" d="m87 88-1-2h4q1 1-1 2z"/>
    <path fill="#ffd030" d="m87 88-1-2h4q1 1-1 2z"/>
    <path fill="#ffd133" d="m87 88-1-2h4l-1 2z"/>
    <path fill="#fc0" d="m107 87 1 5q-2-4-6 0l2-3 1-3z"/>
    <path fill="#ffcc02" d="m107 87 1 5q-2-4-6 0l2-3 1-3z"/>
    <path fill="#ffcc05" d="m107 87 1 5q-2-4-6 0l2-3 1-3z"/>
    <path fill="#ffcc07" d="m107 87 1 5q-2-4-6 0l2-3 1-3z"/>
    <path fill="#ffcd0a" d="M107 87q2 3 1 5-2-4-6 0l2-3 1-3z"/>
    <path fill="#ffcd0c" d="m107 87 1 5q-3-4-5 0l1-3 1-3z"/>
    <path fill="#ffcd0f" d="m107 87 1 5q-2-4-5 0l1-3 1-3z"/>
    <path fill="#ffcd11" d="m107 87 1 4q-2-2-5 0l1-2 1-3z"/>
    <path fill="#ffce14" d="m107 87 1 4q-2-2-5 0l1-2 2-3z"/>
    <path fill="#ffce16" d="m107 87 1 4q-2-2-5 0l1-2 2-3z"/>
    <path fill="#ffce19" d="m107 87 1 4q-2-2-5 0l1-2 2-3z"/>
    <path fill="#ffce1c" d="m107 87 1 4q-3-2-5 0l1-2 2-3z"/>
    <path fill="#ffcf1e" d="m107 87 1 4q-2-2-5 0l1-2 2-3z"/>
    <path fill="#ffcf21" d="m107 87 1 4q-2-3-5 0l1-3 2-2z"/>
    <path fill="#ffcf23" d="m107 87 1 4q-2-3-4 0v-3l2-1z"/>
    <path fill="#ffcf26" d="m107 87 1 4q-2-3-4-1l1-2 1-1z"/>
    <path fill="#ffd028" d="m107 87 1 3q-2-2-4 0l1-2 1-1z"/>
    <path fill="#ffd02b" d="m107 87 1 3q-2-2-4 0l1-2 1-1z"/>
    <path fill="#ffd02d" d="m107 87 1 3q-2-2-4 0l1-2 1-1z"/>
    <path fill="#ffd030" d="m107 87 1 3q-2-2-4 0l1-2 1-1z"/>
    <path fill="#ffd133" d="m107 87 1 3q-2-2-4 0l1-2 1-1z"/>
    <path fill="#fc0" d="m108 93 7 6 3 3-2 3-11 5-9 3-4 1-3-2q-2 0-2-3-1-4 2-8l6-3q6 0 7-4 3-3 6-1"/>
    <path fill="#ffcc02" d="m108 93 7 6q2 1 2 3l-1 3-11 5-9 3-4 1-3-2q-2-1-2-3l2-8q3-3 6-2 6-1 7-5 3-2 6-1"/>
    <path fill="#ffcc05" d="m108 93 7 6q2 1 2 3l-1 3-11 5-9 3h-4l-3-1q-2-1-2-3l2-8q3-3 6-2 6-1 7-5 3-2 6-1"/>
    <path fill="#ffcc07" d="m108 93 7 6q2 1 2 3l-1 3-11 5-9 3h-4l-3-1q-2-1-2-3 0-4 3-8 2-3 5-2c6 1 5-3 7-5q3-2 6-1"/>
    <path fill="#ffcd0a" d="m108 93 7 6q2 1 2 3l-1 3-11 5-9 3h-4l-3-1q-2-1-2-3 0-4 3-8 2-2 5-2c6 1 5-3 7-5q3-2 6-1"/>
    <path fill="#ffcd0c" d="m108 93 7 6q2 1 2 3l-1 3-11 5-8 3h-5l-3-1-1-3q-1-4 2-8 3-3 5-2c6 1 5-3 7-5q3-2 6-1"/>
    <path fill="#ffcd0f" d="m108 93 7 6q2 1 2 3l-1 3-11 5-8 2-5 1-3-1-1-3q-1-4 2-8 3-3 5-2c6 1 5-3 7-5q3-2 6-1"/>
    <path fill="#ffcd11" d="m108 93 7 6q2 1 2 3l-1 3-11 5-8 2-5 1-3-1-1-3 2-8q3-3 5-2c6 1 5-3 7-5q3-2 6-1"/>
    <path fill="#ffce14" d="m108 93 7 6q2 1 2 3l-1 3-11 5-8 2-5 1-2-2-2-2q-1-4 2-8 3-3 5-2c6 1 5-3 7-5q3-2 6-1"/>
    <path fill="#ffce16" d="m108 93 7 6q2 1 2 3l-1 3-12 5-7 2h-5l-2-1-2-2 2-8q3-3 5-1c6 0 5-4 7-6q3-2 6-1"/>
    <path fill="#ffce19" d="m108 93 7 6q2 1 2 3l-1 3-12 5-7 2h-5l-2-1-2-2 2-7q3-4 5-2c6 1 5-4 7-6q3-2 6-1"/>
    <path fill="#ffce1c" d="m108 94 7 5q2 1 2 3l-1 3-12 5-7 2h-4l-3-1-1-2q-1-4 1-7t5-2c6 1 5-4 7-6q3-2 6 0"/>
    <path fill="#ffcf1e" d="m108 94 7 5q2 1 2 3l-1 3-12 5q-5 0-7 2h-4l-3-1-1-2q-1-3 1-7 2-3 6-2c5 1 4-4 6-6q3-2 6 0"/>
    <path fill="#ffcf21" d="m108 94 7 5q2 1 2 3t-2 3q-3 3-11 4l-7 2-4 1-3-1-1-2 1-7q2-3 6-2c5 1 4-4 6-6q3-2 6 0"/>
    <path fill="#ffcf23" d="m108 94 7 5 2 3q0 2-2 3-3 3-11 4l-7 2-4 1-3-1-1-2 1-7q2-3 6-2c5 1 4-4 6-6q3-2 6 0"/>
    <path fill="#ffcf26" d="m108 94 7 5 2 3q0 2-2 3c-1 1-8 4-11 4l-7 2-4 1-3-1-1-2 1-7q2-3 6-2c5 1 4-4 6-6q3-2 6 0"/>
    <path fill="#ffd028" d="M108 94q3 4 7 5l2 3q0 2-2 3c-1 1-8 4-11 4l-6 2h-8v-9q3-3 6-2c5 1 4-4 6-6q3-2 6 0"/>
    <path fill="#ffd02b" d="m108 94 7 5 2 3q0 2-2 3c-1 1-8 4-11 4l-6 2h-5l-2-1-1-1v-7q3-3 6-2c5 1 4-4 6-6q3-2 6 0"/>
    <path fill="#ffd02d" d="m108 94 7 5 2 3q0 2-2 3c-1 1-8 4-11 4l-6 2h-5l-2-1-1-1v-7q4-3 6-1c5 1 4-5 6-7q3-2 6 0"/>
    <path fill="#ffd030" d="M108 94q3 4 7 5l2 3q0 2-2 3c-1 1-8 4-11 4q-5 0-6 2h-5l-2-1-1-1v-7q4-3 6-1c5 1 4-5 6-7q3-2 6 0"/>
    <path fill="#ffd133" d="m108 94 7 5 2 3q0 2-2 3c-1 1-8 4-11 4l-6 1-5 1-2-1-1-1q-1-3 1-7 2-3 5-1c5 1 4-5 6-6q3-3 6-1"/>
    <path fill="#995900" d="M27 90c-2 2-8 1-9 3v9l-1 5v4c2 2 4 2 14 5l16 4q4 0 6-3c2-2 3-1 3-6q-1-4-6-10l-6-10c-2-3-6-9-8-9l-5 2z"/>
    <path fill="#9e5e00" d="M27 90c-2 2-8 1-9 3v9l-1 5v4c2 2 4 2 15 4l14 5q5 0 7-3c2-2 3-1 3-6q-1-4-6-10l-6-10c-2-3-6-9-8-9l-5 2z"/>
    <path fill="#a36400" d="m27 90-9 3v9l-1 5v4c2 2 4 2 15 4l14 5q5 0 7-3 3-2 3-6-1-4-6-10l-6-10c-2-3-6-9-8-9l-5 2z"/>
    <path fill="#a86a00" d="m27 90-9 3v9l-1 5v4c2 2 4 2 15 4l14 4q5 1 7-2 3-2 3-6-1-4-6-10l-6-10c-2-3-6-9-8-9l-5 2z"/>
    <path fill="#ad7000" d="m27 90-9 3v9l-1 5v4c2 2 4 2 15 4l14 4q4 0 7-3c2-2 2-1 2-5q0-4-5-10l-6-10c-2-3-6-9-8-9l-5 2z"/>
    <path fill="#b27500" d="M27 91q-5 0-9 2v9l-1 5v4c2 2 4 1 15 4l14 4q4 0 6-3c3-2 3-1 3-5q0-4-5-10l-6-10c-2-3-6-9-8-9l-5 2z"/>
    <path fill="#b77b00" d="m27 91-9 2v9l-1 5v4c2 2 4 1 15 3q8 4 14 5 4 0 6-3c2-2 3-1 3-5q0-4-5-10l-6-10c-2-3-6-9-8-9l-5 2z"/>
    <path fill="#bc8100" d="m27 91-9 2v9l-1 5v4c2 2 4 1 15 3l14 4q4 1 6-2 3-2 3-5 0-4-5-10c-5-6-4-6-6-10-2-3-6-9-8-9l-5 2z"/>
    <path fill="#c18700" d="m27 91-9 2v9l-1 5v4c2 2 4 1 15 3l14 4 6-2 3-5q0-4-5-10l-6-10c-2-3-6-9-8-9l-5 2z"/>
    <path fill="#c68c00" d="m27 91-9 2v9l-1 5v4c2 2 4 1 15 3l14 4q4 0 6-3 2-1 2-4 1-4-4-10l-6-10c-2-3-6-9-8-9l-5 2z"/>
    <path fill="#cc9200" d="M27 91c-2 2-6 0-9 2v9l-1 5v4c2 2 4 0 15 3q8 3 14 3 3 1 5-2 4-1 3-4c1-5-1-5-4-10l-6-10c-2-3-6-9-8-9l-5 2z"/>
    <path fill="#d19800" d="M27 91c-2 2-6 0-9 2v9l-1 5v4c2 2 4 0 15 3l14 3q3 0 5-2 3-2 3-4c0-5-1-5-4-10l-6-10c-2-3-6-9-8-9l-5 2z"/>
    <path fill="#d69e00" d="M27 91c-2 2-6 0-9 3v8l-1 5v4c2 2 4 0 15 2q8 4 14 4 3 0 5-2 3-2 3-4c0-5-1-5-4-10l-6-10c-2-3-6-9-8-9l-5 2z"/>
    <path fill="#dba300" d="M27 91c-2 2-6 0-9 3l1 8-2 5v4c2 2 4 0 15 2l14 4q3 0 5-3l3-3c0-5-1-5-4-10l-6-10c-2-3-6-9-8-9l-5 2c-1 1-2 6-4 7"/>
    <path fill="#e0a900" d="M27 91c-2 2-5 0-9 3l1 8-2 5v4c2 2 4 0 15 2q8 3 14 3 2 1 5-2 3-1 2-3c1-5 0-5-3-10l-6-10c-2-3-6-9-8-9l-5 2c-1 1-2 6-4 7"/>
    <path fill="#e5af00" d="M27 91c-2 2-5 0-9 3l1 8-2 5v4c2 2 4 0 15 2 6 1 8 3 14 3q2 1 5-2 3-1 2-4c1-4 0-4-3-9l-6-10c-2-3-6-9-8-9l-5 2c-1 1-2 6-4 7"/>
    <path fill="#eab500" d="M27 92c-1 1-5-1-8 2v8l-2 5v4c2 2 4-1 15 2 6 1 8 3 14 3l4-2q4-2 3-4c1-4 0-4-3-9l-6-10c-2-3-6-9-8-9l-5 2z"/>
    <path fill="#efba00" d="M27 92c-1 1-5-2-8 2v8l-2 5v4c2 2 4-1 15 1 6 2 8 4 14 4l4-2q3-2 3-4c0-4 0-4-3-9l-6-10c-2-3-6-9-8-9l-5 2z"/>
    <path fill="#f4c000" d="M27 92c-1 1-5-2-8 2v8l-2 5v4c2 2 4-1 15 1 6 1 8 4 14 3l4-2 3-3c0-4 0-4-3-9l-6-10c-2-3-6-9-8-9l-5 2z"/>
    <path fill="#f9c600" d="M27 92c-1 1-5-2-8 2v8l-2 5v4c2 2 4-1 15 1 6 1 8 3 14 3l4-2q3-1 2-3c1-4 1-4-2-9l-6-10c-2-3-6-9-8-9l-5 2z"/>
    <path fill="#fc0" d="M27 92c-1 2-4-2-8 2v8l-2 5v4c2 2 4-1 15 1 6 1 8 3 14 3l4-2 2-3c1-4 1-4-2-9l-6-10c-2-3-6-9-8-9l-5 2zm1 2-8 1 1 7-1 4 1 2c2 2 2 1 11 3 6 1 7 3 13 2l3-1q2-2 1-3 2-4-2-9l-5-8q-3-6-6-8l-4 2z"/>
    <path fill="#ffcc02" d="m28 94-8 1 1 7-1 4 1 2c2 2 2 1 11 3 6 1 7 3 13 2q2 1 3-2 2-1 1-2 1-5-2-9l-5-8q-3-6-6-8l-4 2z"/>
    <path fill="#ffcc05" d="m29 94-9 1 1 7-1 4 2 2c2 2 1 1 11 2 5 2 6 3 12 3l3-2q2-1 1-2 1-5-2-9l-5-8q-3-6-6-8l-4 2z"/>
    <path fill="#ffcc07" d="m29 94-9 1 1 7-1 4 2 2c2 2 2 1 11 2 5 1 6 3 11 3l4-2q2-1 1-2 1-4-2-9l-5-8c-2-2-4-8-6-8l-4 2z"/>
    <path fill="#ffcd0a" d="m29 94-9 1 1 7-1 4 2 2c2 2 2 1 11 2 5 1 6 3 11 3l4-2q2-1 1-2 1-5-3-9l-4-7c-2-3-4-9-6-9l-4 2z"/>
    <path fill="#ffcd0c" d="m29 94-8 1c-2 1 1 3 0 7l-1 4 2 2c2 2 2 1 11 2 5 1 6 3 11 3l4-2q2-1 1-2 1-4-3-9l-4-7c-2-3-4-9-6-9l-4 2z"/>
    <path fill="#ffcd0f" d="m29 94-8 1c-2 1 1 3 0 7l-1 4 2 2c2 2 3 1 11 2 5 1 6 3 11 3l4-2q2-1 1-3 1-3-3-8l-4-7c-2-3-4-9-6-9l-4 2z"/>
    <path fill="#ffcd11" d="m29 94-8 1c-2 1 1 3 0 7v4l1 2c3 2 3 1 11 2 5 1 6 3 11 3l4-2 1-3q1-3-3-8l-4-7c-2-3-4-9-6-9l-4 2z"/>
    <path fill="#ffce14" d="m29 94-8 1c-2 2 1 3 1 7l-1 4 1 2 11 2c5 1 6 3 11 3l4-2v-3q2-3-2-8l-4-7q-3-6-6-8l-4 1z"/>
    <path fill="#ffce16" d="m29 94-8 1c-2 2 1 3 1 7l-1 4 1 2 11 2c5 1 6 3 11 2l4-1v-3l-2-8-4-7q-3-6-6-8-3 0-4 2z"/>
    <path fill="#ffce19" d="m29 94-8 1c-2 2 1 3 1 7l-1 4 2 2 10 2c5 1 6 3 11 2l4-1v-3l-2-8-4-7q-3-6-6-8l-4 2z"/>
    <path fill="#ffce1c" d="M29 94c-2 2-7 0-8 2-2 1 1 3 1 6l-1 4 2 2 10 2c5 1 6 3 11 2l3-1q2-1 1-3 1-4-2-8l-4-7q-3-6-6-8l-4 2c-1 1-1 6-3 7"/>
    <path fill="#ffcf1e" d="M29 94c-2 2-7 0-8 2q-1 2 1 6l-1 4 2 1c3 2 3 2 10 3 5 1 6 3 11 2l3-1q2-1 1-3 1-5-2-8l-4-7c-2-2-4-8-6-8l-4 2c-1 1-1 6-3 7"/>
    <path fill="#ffcf21" d="M30 94c-3 2-8 0-9 2-2 1 1 3 1 6l-1 4 2 1q3 2 10 3c5 1 6 3 11 2l3-1q2-1 1-3 1-5-2-8l-4-7c-2-2-4-8-6-8l-4 2z"/>
    <path fill="#ffcf23" d="M30 94c-3 2-8 0-9 2-2 1 1 3 1 6l-1 4 2 1q3 2 10 3l11 2 3-1q2-1 1-3 1-5-2-8l-4-6c-2-3-4-9-6-9l-4 2z"/>
    <path fill="#ffcf26" d="m30 94-9 2c-1 1 2 3 1 6l-1 4 2 1 10 3 11 2 3-1q2-1 1-3 0-5-2-8l-5-6c-1-3-3-9-5-9l-4 2z"/>
    <path fill="#ffd028" d="M30 94c-2 3-8 1-9 2s2 3 1 6l-1 4 2 1 10 3 11 2 3-1q2-1 0-3 1-5-1-8l-5-6c-1-3-3-9-5-9q-3 0-3 2z"/>
    <path fill="#ffd02b" d="M30 94c-2 3-8 1-9 2s2 3 1 6l-1 4 2 1 10 3 11 2 3-1v-3l-1-7-5-7c-1-3-3-9-5-9q-2 0-3 2z"/>
    <path fill="#ffd02d" d="M30 94c-2 3-8 1-9 2l2 5-2 5 2 1q4 3 10 2c5 1 6 3 11 3l3-1v-3l-1-7-5-7q-2-6-5-8-2-1-3 1z"/>
    <path fill="#ffd030" d="M30 94c-2 3-8 1-9 2l2 5-1 5 2 1q4 3 9 2c5 1 6 3 11 3l3-1v-4l-1-6-5-7q-2-6-5-8l-3 1c-1 1-1 6-3 7"/>
    <path fill="#ffd133" d="M30 94c-2 3-8 1-9 2l2 5-1 5 2 1q5 3 9 2c5 1 6 3 11 3l3-2v-3l-1-6-5-7c-1-2-3-8-5-8l-3 1c-1 1-1 6-3 7"/>
    <path d="m38 72 1 9q2 4 0 2l-3-6 1-6z"/>
    <path fill="#030303" d="m38 72 1 9q2 3 0 2l-3-6 1-5z"/>
    <path fill="#070707" d="m38 73 1 8q2 3 0 2l-3-6 1-5q1-1 1 1"/>
    <path fill="#0b0b0b" d="m38 73 1 8q2 3 0 2l-3-6 1-5z"/>
    <path fill="#0f0f0f" d="m38 73 1 8q2 3 0 2l-3-6 1-5z"/>
    <path fill="#131313" d="m38 73 1 8q2 4 0 1-3-2-3-5z"/>
    <path fill="#161616" d="m38 73 1 8q2 4 0 1-3-2-3-5z"/>
    <path fill="#1a1a1a" d="m38 73 1 8q2 3 0 1t-3-5z"/>
    <path fill="#1e1e1e" d="m38 73 1 8q2 4 0 1l-3-5z"/>
    <path fill="#222" d="m38 73 1 8q2 3 0 1-3-2-2-5z"/>
    <path fill="#262626" d="m38 73 1 8q2 3 0 1l-2-5z"/>
    <path fill="#2a2a2a" d="m38 74 1 7q2 3 0 1l-2-5z"/>
    <path fill="#2d2d2d" d="m38 74 1 7q2 3 0 1l-2-5z"/>
    <path fill="#313131" d="m38 74 1 7q2 3 0 1l-2-5z"/>
    <path fill="#353535" d="m38 74 1 7q2 3 0 1l-2-4z"/>
    <path fill="#393939" d="m38 74 1 7q2 3 0 1l-2-4z"/>
    <path fill="#3d3d3d" d="m38 74 1 7q2 3 0 1l-2-4z"/>
    <path fill="#414141" d="m38 74 1 7q2 3 0 1l-2-4z"/>
    <path fill="#444" d="m38 74 1 7q1 2 0 0l-2-3z"/>
    <path fill="#484848" d="m38 74 1 7q1 2 0 0l-2-3z"/>
    <path fill="#4c4c4c" d="m38 75 1 6q2 2 0 0l-2-3z"/>
    <path d="m38 72 5-9q3-5-1-3l-3 5-2 6z"/>
    <path fill="#020202" d="m38 72 4-9q3-4 0-3l-3 5z"/>
    <path fill="#050505" d="m38 72 4-9q3-5 0-3l-3 5z"/>
    <path fill="#070707" d="m39 72 3-9q3-5 0-3l-3 5-2 6z"/>
    <path fill="#0a0a0a" d="m39 72 3-9q2-5 0-3l-3 5-2 6z"/>
    <path fill="#0c0c0c" d="m39 71 3-8q2-5 0-3l-3 5-2 6z"/>
    <path fill="#0f0f0f" d="m39 71 3-8q2-5 0-3l-3 5-1 5z"/>
    <path fill="#111" d="m39 71 3-8q2-4 0-3l-3 5-1 5z"/>
    <path fill="#141414" d="m39 71 3-8q2-4 0-2l-3 4-1 5z"/>
    <path fill="#161616" d="m39 71 3-8q2-4 0-2l-2 4-2 5z"/>
    <path fill="#191919" d="m39 70 3-7v-2l-2 4z"/>
    <path fill="#1c1c1c" d="m39 70 3-7v-2l-2 4z"/>
    <path fill="#1e1e1e" d="m39 70 3-7v-2l-2 4z"/>
    <path fill="#212121" d="m39 70 3-7v-2l-2 4z"/>
    <path fill="#232323" d="m39 70 3-7v-2l-2 5z"/>
    <path fill="#262626" d="m39 69 3-6v-2l-2 5zq0 1 0 0"/>
    <path fill="#282828" d="m39 69 3-6v-2l-2 5zq0 1 0 0"/>
    <path fill="#2b2b2b" d="m39 69 3-6v-2l-2 5z"/>
    <path fill="#2d2d2d" d="m39 69 3-6v-2l-2 5z"/>
    <path fill="#303030" d="m40 69 2-6v-2l-2 5z"/>
    <path fill="#333" d="m40 68 2-5v-2l-2 5z"/>
    <path d="M98 75q1-4-1-10l-2-3-1 1q2 1 3 11z"/>
    <path fill="#030303" d="m98 74-1-9-2-3-1 1 3 10z"/>
    <path fill="#070707" d="m98 74-1-9-2-3-1 1 3 10z"/>
    <path fill="#0b0b0b" d="m98 74-1-9-2-2h-1q2 1 3 10z"/>
    <path fill="#0f0f0f" d="m98 74-1-9-2-2 2 10z"/>
    <path fill="#131313" d="m98 73-1-8-2-2v1l2 8z"/>
    <path fill="#161616" d="m98 73-1-8-1-2-1 1 2 8z"/>
    <path fill="#1a1a1a" d="m98 73-1-8-1-2-1 1 2 8z"/>
    <path fill="#1e1e1e" d="m98 73-1-8-1-2-1 1 2 8z"/>
    <path fill="#222" d="m98 72-1-7-1-1h-1l2 8z"/>
    <path fill="#262626" d="m98 72-1-7-1-1h-1l2 7z"/>
    <path fill="#2a2a2a" d="m98 72-1-6-1-2h-1l2 7z"/>
    <path fill="#2d2d2d" d="M97 72v-6l-1-2-1 1 2 6z"/>
    <path fill="#313131" d="M97 71v-5l-1-2-1 1zq0 1 0 0"/>
    <path fill="#353535" d="M97 71v-5l-1-2-1 1z"/>
    <path fill="#393939" d="M97 71v-5l-1-1z"/>
    <path fill="#3d3d3d" d="M97 71v-5l-1-1z"/>
    <path fill="#414141" d="M97 70v-4l-1-1zq0 1 0 0"/>
    <path fill="#444" d="M97 70v-4l-1-1z"/>
    <path fill="#484848" d="M97 70v-4l-1-1v1z"/>
    <path fill="#4c4c4c" d="M97 70v-4l-1-1v1z"/>
    <path d="M95 62q-6-7-7-4l6 5q2 1 1-1"/>
    <path fill="#030303" d="M95 62q-6-6-7-4l6 5q2 0 1-1"/>
    <path fill="#070707" d="M95 62q-6-6-7-4l6 5z"/>
    <path fill="#0b0b0b" d="M95 62q-6-6-7-4l6 4z"/>
    <path fill="#0f0f0f" d="M95 62q-6-6-7-4l6 4z"/>
    <path fill="#131313" d="M94 61q-4-5-6-3l6 4z"/>
    <path fill="#161616" d="M94 61q-4-4-6-3l6 4z"/>
    <path fill="#1a1a1a" d="M94 61q-5-4-6-3l5 4z"/>
    <path fill="#1e1e1e" d="M94 61q-5-4-6-3l5 4z"/>
    <path fill="#222" d="M94 61q-5-4-6-3l5 4z"/>
    <path fill="#262626" d="M94 61q-5-4-6-3z"/>
    <path fill="#2a2a2a" d="M94 61q-5-4-6-3l5 3z"/>
    <path fill="#2d2d2d" d="m93 61-4-3zq1 1 0 0"/>
    <path fill="#313131" d="m93 61-4-3z"/>
    <path fill="#353535" d="m93 60-4-2z"/>
    <path fill="#393939" d="m93 60-4-2z"/>
    <path fill="#3d3d3d" d="m93 60-4-2z"/>
    <path fill="#414141" d="m93 60-4-2z"/>
    <path fill="#444" d="m93 60-4-2z"/>
    <path fill="#484848" d="m92 60-3-2zq1 0 0 0"/>
    <path fill="#4c4c4c" d="m92 60-3-2zq1 0 0 0"/>
    <path d="m98 75-3 7q-1-1 1-5l1-3z"/>
    <path fill="#050505" d="m98 75-3 7 1-5 1-3z"/>
    <path fill="#0a0a0a" d="M98 75c0 2-2 7-3 6l1-4 1-3z"/>
    <path fill="#0f0f0f" d="M98 75c0 2-2 7-3 6l1-4 1-3z"/>
    <path fill="#141414" d="M98 75c0 2-2 7-3 6l1-4 1-3z"/>
    <path fill="#191919" d="M98 75c0 2-2 7-3 6l1-4 1-3z"/>
    <path fill="#1e1e1e" d="m98 76-3 5 1-3 1-3z"/>
    <path fill="#232323" d="m97 76-2 5 1-3 1-3z"/>
    <path fill="#282828" d="m97 76-2 5 1-3z"/>
    <path fill="#2d2d2d" d="m97 76-2 5 1-3z"/>
    <path fill="#333" d="m97 76-2 5 1-3z"/>
    <path fill="#383838" d="m97 76-2 5 1-3zq0-1 0 0"/>
    <path fill="#3d3d3d" d="m97 77-2 4zl1-2z"/>
    <path fill="#424242" d="m97 77-2 4z"/>
    <path fill="#474747" d="m97 77-2 4z"/>
    <path fill="#4c4c4c" d="m97 77-2 4z"/>
    <path fill="#515151" d="m97 77-2 4zq0-2 0 0"/>
    <path fill="#565656" d="m97 77-2 4zq0-1 0 0"/>
    <path fill="#5b5b5b" d="m97 78-2 3z"/>
    <path fill="#606060" d="m97 78-2 3z"/>
    <path fill="#666" d="m97 78-2 3z"/>
    <path d="M91 62v5l3-2q-1-3-3-3"/>
    <path fill="#010101" d="M91 62v5l3-2q-1-3-3-3"/>
    <path fill="#030303" d="M91 62v4q2 1 3-1-1-3-3-3"/>
    <path fill="#050505" d="M91 63v3q2 1 3-1-1-3-3-2"/>
    <path fill="#070707" d="M91 63v3q2 1 3-1-2-3-3-2"/>
    <path fill="#090909" d="M91 63v3q2 1 3-1-1-3-3-2"/>
    <path fill="#0b0b0b" d="M91 63v3q2 1 3-1-1-3-3-2"/>
    <path fill="#0d0d0d" d="M91 63v3q2 1 3-1-1-3-3-2"/>
    <path fill="#0f0f0f" d="M91 63v3q2 1 3-1-1-3-3-2"/>
    <path fill="#111" d="M91 63v3q2 1 3-1-1-3-3-2"/>
    <path fill="#131313" d="M91 63v3q2 1 3-1-1-3-3-2"/>
    <path fill="#151515" d="M91 63v3q2 1 3-1-1-3-3-2"/>
    <path fill="#161616" d="M91 63v3q2 1 3-1-1-3-3-2"/>
    <path fill="#181818" d="M91 63v3q2 1 3-1-1-3-3-2"/>
    <path fill="#1a1a1a" d="M91 63v3q2 1 3-1-1-2-3-2"/>
    <path fill="#1c1c1c" d="M91 63v3q2 1 3-1z"/>
    <path fill="#1e1e1e" d="M91 63v3q2 1 3-1z"/>
    <path fill="#202020" d="m92 63-1 3q2 1 3-1z"/>
    <path fill="#222" d="m92 63-1 3q2 1 3-1z"/>
    <path fill="#242424" d="m92 63-1 3q1 1 3-1z"/>
    <path fill="#262626" d="m92 63-1 3q2 1 3-1z"/>
    <path d="m91 85 1-2 3-1h1l-2-1-2 2q-2 0-1 2"/>
    <path fill="#050505" d="m91 84 1-1 3-1h1l-2-1-2 2z"/>
    <path fill="#0a0a0a" d="m91 84 1-1 3-1h1l-2-1-2 2z"/>
    <path fill="#0f0f0f" d="m91 84 1-1 3-1h1l-2-1-2 2z"/>
    <path fill="#141414" d="M91 84q1 1 1-1l3-1h1l-2-1-2 2z"/>
    <path fill="#191919" d="m91 84 1-1 3-1h1l-2-1-2 2z"/>
    <path fill="#1e1e1e" d="m91 84 1-1 3-1h1l-2-1-2 2z"/>
    <path fill="#232323" d="m91 84 2-1 2-1h1l-2-1-2 2z"/>
    <path fill="#282828" d="m92 84 1-1 2-1h1l-1-1-3 1z"/>
    <path fill="#2d2d2d" d="m92 84 1-1 2-1h1l-1-1-3 1z"/>
    <path fill="#333" d="m92 83 2-1h1l-1-1z"/>
    <path fill="#383838" d="m92 83 2-1h1l-1-1z"/>
    <path fill="#3d3d3d" d="m92 83 2-1h1l-1-1z"/>
    <path fill="#424242" d="m92 83 2-1h1l-1-1z"/>
    <path fill="#474747" d="m92 83 1-1h3l-1-1z"/>
    <path fill="#4c4c4c" d="m92 83 1-1h3l-1-1z"/>
    <path fill="#515151" d="m92 83 1-1h3l-1-1z"/>
    <path fill="#565656" d="m92 83 1-1h3l-1-1z"/>
    <path fill="#5b5b5b" d="M93 82q0 1 0 0h3l-1-1zq-1 0 0 0"/>
    <path fill="#606060" d="M93 82h3z"/>
    <path fill="#666" d="M93 82h3z"/>
    <path d="m97 82 3 1q2 0 3 2v2l2-2-3-3-4-1z"/>
    <path fill="#030303" d="m97 82 3 1 3 2v2l2-2-3-3-4-1z"/>
    <path fill="#070707" d="m97 82 3 1q2 0 3 2v2l2-2-3-3-4-1z"/>
    <path fill="#0b0b0b" d="m97 82 3 1q2 0 3 2v2l2-2-3-3-4-1z"/>
    <path fill="#0f0f0f" d="m97 82 3 1q2 0 3 2v2l2-2-3-3-3-1z"/>
    <path fill="#131313" d="m97 82 3 1 3 1v2l2-2-3-2-3-1z"/>
    <path fill="#161616" d="m97 82 3 1 3 1v2l1-2-2-2-3-1z"/>
    <path fill="#1a1a1a" d="m97 82 3 1 3 1v2l1-2-2-2-3-1z"/>
    <path fill="#1e1e1e" d="m97 82 3 1 3 1v2l1-2-2-2-3-1z"/>
    <path fill="#222" d="m97 82 3 1 3 1v2l1-2-2-2-3-1z"/>
    <path fill="#262626" d="m97 82 3 1 3 1v2l1-2-2-2-3-1z"/>
    <path fill="#2a2a2a" d="m97 82 3 1 3 1v2l1-2-2-2-3-1z"/>
    <path fill="#2d2d2d" d="m97 82 3 1 3 1v2l1-2-2-2-3-1z"/>
    <path fill="#313131" d="M97 82h3l3 2v1l1-1-2-2-3-1z"/>
    <path fill="#353535" d="M98 82h2l3 2v1l1-1-2-2z"/>
    <path fill="#393939" d="M98 82h2l3 2v1l1-1-2-2z"/>
    <path fill="#3d3d3d" d="M98 82h2l3 2v1l1-1-2-2z"/>
    <path fill="#414141" d="M98 82h2l3 2v1l1-1-2-2z"/>
    <path fill="#444" d="M98 82h2l3 2v1l1-1-2-2z"/>
    <path fill="#484848" d="M98 82h2l3 2v1l1-1-2-2z"/>
    <path fill="#4c4c4c" d="M98 82h2l3 2h1l-2-2zm5 1v1z"/>
    <path fill="#505050" d="M103 83v1z"/>
    <path fill="#545454" d="M103 83v1z"/>
    <path fill="#575757" d="M103 83v1z"/>
    <path fill="#5b5b5b" d="M103 83v1z"/>
    <path fill="#5f5f5f" d="M103 83v1z"/>
    <path fill="#636363" d="M103 83v1z"/>
    <path fill="#676767" d="M103 83v1z"/>
    <path fill="#6b6b6b" d="M103 83v1z"/>
    <path fill="#6e6e6e" d="M103 83v1z"/>
    <path fill="#727272" d="M103 83v1q1 0 0 0z"/>
    <path fill="#767676" d="M103 83v1q1 0 0 0z"/>
    <path fill="#7a7a7a" d="M103 83v1q1 0 0 0z"/>
    <path fill="#7e7e7e" d="M103 83v1q1 0 0 0z"/>
    <path fill="#828282" d="M103 83v1q1 0 0 0z"/>
    <path fill="#858585" d="M103 83q1 0 0 0"/>
    <path fill="#898989" d="M103 83q1 0 0 0"/>
    <path fill="#8d8d8d" d="M103 83q1 0 0 0"/>
    <path fill="#919191" d="M103 83q-2 0 0 0"/>
    <path fill="#959595" d="M103 83q-1 0 0 0"/>
    <path fill="#999" d="M103 83q-1 0 0 0"/>
    <path d="m81 36 2 5 3 1q2-3 0-4l-3-1z"/>
    <path fill="#050505" d="m81 36 2 5 3 1q2-3 0-4l-3-1z"/>
    <path fill="#0a0a0a" d="M82 36q-1 2 1 5l3 1q2-3 0-4l-3-1z"/>
    <path fill="#0f0f0f" d="M82 36q-1 2 1 5l3 1q2-3 0-4l-3-1z"/>
    <path fill="#141414" d="M82 36q-1 2 1 5h3v-3l-3-1z"/>
    <path fill="#191919" d="m82 37 1 4h3v-3l-3-1z"/>
    <path fill="#1e1e1e" d="m82 37 1 4h3v-3l-3-1z"/>
    <path fill="#232323" d="m82 37 1 4h3v-3l-3-1z"/>
    <path fill="#282828" d="m82 37 1 4h3v-3l-3-1z"/>
    <path fill="#2d2d2d" d="m82 37 1 4h3v-3l-3-1z"/>
    <path fill="#333" d="m82 37 1 4h3v-3l-3-1z"/>
    <path fill="#383838" d="m82 37 1 4h3v-3l-3-1z"/>
    <path fill="#3d3d3d" d="m82 37 1 4h3v-3l-3-1z"/>
    <path fill="#424242" d="m82 37 1 4h3v-3l-3-1z"/>
    <path fill="#474747" d="m82 37 1 4h3v-3l-3-1z"/>
    <path fill="#4c4c4c" d="m82 37 1 4h3v-3l-3-1z"/>
    <path fill="#515151" d="m82 37 1 4h3v-3l-3-1z"/>
    <path fill="#565656" d="m82 37 1 3q3 3 3 1v-3l-3-1z"/>
    <path fill="#5b5b5b" d="m82 37 1 3q3 3 3 1v-3l-3-1z"/>
    <path fill="#606060" d="m82 37 1 3q3 3 3 1v-3l-3-1z"/>
    <path fill="#666" d="m82 37 1 3q3 3 3 1v-3l-3-1z"/>
  </symbol>
  <symbol xmlns="http://www.w3.org/2000/svg" id="mysql" viewBox="0 0 128 128">
    <path fill="#00618a" d="M118 98q-11 0-17 3-3 0-4 2l2 3 4 5 6 4 10 5 6 4 3 3v-1l-2-2-2-3-9-9c-3-2-9-4-10-7v-1l6-1 8-1 4-2-4-6-14-10-9-5-4-1-3-7-7-15-5-10Q65 25 44 14l-12-4h-6l-4-3C17 4 4-3 1 6c-3 5 3 11 5 14l4 6 2 5 4 12 4 5 2 3-2 6q-4 17 2 30c2 2 5 7 9 5q5-4 5-11v-3 1l4 7q4 6 11 11l6 6v-1l-2-1-4-6q-6-7-10-15l-4-9-1-3-4 6-3 13q-4-1-5-6-3-11-1-23 3-4 3-9l-4-4-3-6-5-15-5-6-4-7-1-4 1-1q4-1 6 1l9 4 4 3h2l8 1 13 6q17 11 27 30l2 6 6 13 6 11c1 2 7 3 9 4l6 2 9 6zM29 23h-3l2 4 2 4h1l1-5-1-1zm0 0"/>
  </symbol>
  <symbol xmlns="http://www.w3.org/2000/svg" id="cloud" viewBox="0 0 640 640">
<!--!Font
    Awesome Free v7.1.0 by @fontawesome - https://fontawesome.com License -
    https://fontawesome.com/license/free Copyright 2025 Fonticons, Inc.-->
    <path fill="#333" d="M32 400c0 80 65 144 144 144h304a128 128 0 0 0 54-244 96 96 0 0 0-134-127 144 144 0 0 0-270 91c-57 19-98 73-98 136"/>
  </symbol>
  <symbol xmlns="http://www.w3.org/2000/svg" id="php" viewBox="0 0 128 128">
    <path fill="url(#a)" d="M0 64c0 19 29 34 64 34s64-15 64-34-29-34-64-34S0 45 0 64"/>
    <path fill="#777bb3" d="M64 95c34 0 62-14 62-31S98 33 64 33 3 47 3 64s27 31 61 31"/>
    <path d="m35 68 6-2 3-5-1-5-5-1h-4l-3 13zM20 84l-1-1 7-34 1-1h14q6 1 10 4 2 4 2 10l-2 5-3 4-5 3-7 1h-6l-2 8v1z"/>
    <path fill="#fff" d="M34 56h4l5 1v4l-2 5-6 1h-3zm7-8H27a1 1 0 0 0-2 1l-6 34 1 1h8l1-1 1-8h6l7-1q3 0 5-3l4-4 1-5q1-6-2-10t-10-4M30 69h5l6-2q3-1 3-6v-5l-6-2h-5zm11-20q6 0 9 3 3 4 2 10l-5 8-5 3-6 1h-7l-1 9h-8l7-34z"/>
    <path d="M69 75v-1l3-15-1-3-3-1h-5l-4 19v1h-8v-1l6-34 1-1h7l1 1-2 8h6q6 0 9 3 3 2 2 7l-3 16-1 1z"/>
    <path fill="#fff" d="M65 39h-7l-1 1-7 34 1 1h8l1-1 4-18h7v3l-3 15 1 1h8l1-1 3-16q1-5-2-8-1-2-9-2h-5l2-8a1 1 0 0 0-2-1m0 1-1 9h6l9 2q2 3 1 7l-3 16h-8l3-15v-4h-9l-4 19h-8l7-34z"/>
    <path d="m92 68 6-2q3-1 3-5v-5l-6-1h-4l-2 13zM78 84l-1-1 6-34 1-1h14q7 1 10 4 3 4 2 10l-2 5-3 4-5 3-7 1h-6l-1 8-1 1z"/>
    <path fill="#fff" d="M92 56h3l5 1v4l-2 5-6 1h-3zm6-8H84l-1 1-7 34a1 1 0 0 0 2 1h7l1-1 2-8h5l7-1 6-3 3-4 2-5q1-6-2-10-4-4-11-4M88 69h4l7-2 3-6-1-5-6-2h-5Zm10-20q7 0 10 3 2 4 1 10l-4 8-5 3-7 1h-6l-2 9h-7l6-34z"/>
  </symbol>
  <symbol xmlns="http://www.w3.org/2000/svg" id="react" viewBox="0 0 128 128">
    <g fill="#61dafb">
      <circle cx="64" cy="64" r="11.4"/>
      <path d="m107 45-7-2 2-7q3-20-7-26l-6-2Q78 8 64 22 50 8 39 8l-6 2q-10 6-7 26l2 7-7 2Q1 53 1 64c0 11 7 14 20 19l7 2-2 7q-3 21 7 26l6 2q11 0 25-14 14 14 25 14l6-2q10-5 7-26l-2-7 7-2q20-8 20-19c0-11-7-14-20-19M93 15q6 4 3 20l-1 7-17-3-10-13q11-11 21-12zM81 74l-6 10H53L42 64l11-20h22l12 20zm9-3 3 10-10 2 3-6zM64 98l-7-9 7 1h7zM45 83l-10-2 3-10 4 6zm-7-26-3-10 10-2-3 6zm26-27 7 9-7-1h-7zm22 21-3-6 10 2-3 10zM32 35q-3-16 4-20l3-1q10 1 21 12L50 39l-17 3zM7 64q1-8 16-13l6-2 6 15-6 16Q8 74 7 64m29 49q-7-4-4-20l1-7 17 3 10 13q-11 11-21 12zm60-20q3 17-4 20l-3 1q-9-1-21-12l10-13 17-3zm9-16-6 3-6-16 6-16q22 6 22 16 0 8-16 13"/>
    </g>
  </symbol>
  <symbol xmlns="http://www.w3.org/2000/svg" id="redis" viewBox="0 0 128 128">
    <path fill="#a41e11" d="m122 93-49 22q-9 5-17 1L6 95l-5-4V78l56-13c8-3 10-3 17-1l53 12v13z"/>
    <path fill="#d82c20" d="m122 81-49 21q-9 6-17 1L6 82q-9-4 0-8l51-19c8-3 10-3 17-1l48 19q9 3 0 7"/>
    <path fill="#a41e11" d="M122 73 73 94q-9 6-17 1L6 74q-5-2-5-4V57l56-13c8-3 10-3 17 0s46 9 53 11v13z"/>
    <path fill="#d82c20" d="M122 60 73 81q-9 6-17 1L6 62q-10-5 0-8l51-20c8-3 10-3 17-1l48 19q9 3 0 8"/>
    <path fill="#a41e11" d="M122 51 73 73q-9 4-17 1L6 53l-5-4V36l56-13c8-3 10-3 17-1l53 12v13z"/>
    <path fill="#d82c20" d="M122 38 73 60q-9 6-17 1c-8-5-43-18-50-21s-7-5 0-8l51-19c8-3 10-3 17-1l48 19q9 3 0 7"/>
    <path fill="#fff" d="m80 26-10 1-3 6-4-6-12-1 9-4-3-5 9 3 8-2-2 5zM67 55l-21-9 29-4z"/>
    <ellipse cx="38.4" cy="35.4" fill="#fff" rx="15.5" ry="6"/>
    <path fill="#7a0c00" d="m93 28 17 6-17 7z"/>
    <path fill="#ad2115" d="m74 35 19-7v13l-2 1z"/>
  </symbol>
  <symbol xmlns="http://www.w3.org/2000/svg" id="solidjs" viewBox="0 0 128 128">
    <path fill="#76b3e1" d="M128 30S85-2 52 6h-2q-8 3-11 8l-2 2-12 21 21 4q14 9 30 6l38 7z"/>
    <path fill="#76b3e1" d="M128 30S85-2 52 6h-2q-8 3-11 8l-2 2-12 21 21 4q14 9 30 6l38 7z" opacity=".3"/>
    <path fill="#518ac8" d="M39 30h-4q-20 9-10 29c8 10 25 16 39 12l50-17S71 22 39 30"/>
    <path fill="#76b3e1" d="M39 30h-4q-20 9-10 29c8 10 25 16 39 12l50-17S71 22 39 30" opacity=".3"/>
    <path fill="#315aa9" d="M105 66a36 36 0 0 0-39-12L16 70 0 98l90 15 16-29q5-8-1-18"/>
    <path fill="#4377bb" d="M89 94a36 36 0 0 0-39-12L0 98s43 32 76 24l2-1c14-4 19-16 11-27"/>
  </symbol>
  <symbol xmlns="http://www.w3.org/2000/svg" id="typescript" viewBox="0 0 128 128">
    <path fill="#fff" d="M23 47h99v74H23z"/>
    <path fill="#007acc" d="M2 64v62h125V1H2zm100-5 8 4 3 4-9 6-1-1a7 7 0 0 0-6-4q-5 0-6 5l1 3q0 3 7 5 13 5 15 10 4 7 2 15-3 8-14 10H92a23 23 0 0 1-13-7l-3-5h1l5-3 4-2v1l5 5q8 3 12-1a5 5 0 0 0 1-7q-1-2-9-5t-11-7l-4-6v-8q2-11 13-12zm-29 5v5H57v46H45V70H29V59h44z"/>
  </symbol>
  <symbol xmlns="http://www.w3.org/2000/svg" id="vuejs" viewBox="0 0 128 128">
    <path fill="none" d="M0 9h50l14 25L78 9h50L64 119zm127 1h-24L64 76 26 10H1l63 107zm-25 0H79L64 34 49 10H26l38 64zM26 9h23M26 9h23"/>
    <path fill="#35495e" d="M26 9h23l15 25L79 9h23L64 75z"/>
    <path fill="#41b883" d="m1 10 25-1 38 66 38-66h25L64 117z"/>
  </symbol>
</svg>